G04 DipTrace 2.4.0.2*
%INTouchSwitch.bottomsilkscreen.ger*%
%MOIN*%
%ADD12C,0.003*%
%ADD41C,0.0046*%
%ADD42C,0.0062*%
%ADD43C,0.0139*%
%ADD44C,0.0015*%
%FSLAX44Y44*%
G04*
G70*
G90*
G75*
G01*
%LNBotSilk*%
%LPD*%
X4985Y18047D2*
D41*
X4956Y18061D1*
X4913Y18104D1*
Y17803D1*
X4806Y18032D2*
Y18047D1*
X4791Y18075D1*
X4777Y18090D1*
X4748Y18104D1*
X4691D1*
X4662Y18090D1*
X4648Y18075D1*
X4633Y18047D1*
Y18018D1*
X4648Y17989D1*
X4677Y17946D1*
X4820Y17803D1*
X4619D1*
X4527Y18104D2*
X4412Y17803D1*
X4297Y18104D1*
X4665Y20041D2*
D42*
Y19697D1*
X4837Y19869D2*
X4492D1*
X4898Y20729D2*
D41*
X4927Y20715D1*
X4956Y20686D1*
X4970Y20657D1*
X4984Y20614D1*
Y20542D1*
X4970Y20500D1*
X4956Y20471D1*
X4927Y20442D1*
X4898Y20428D1*
X4841D1*
X4812Y20442D1*
X4784Y20471D1*
X4769Y20500D1*
X4755Y20542D1*
Y20614D1*
X4769Y20657D1*
X4784Y20686D1*
X4812Y20715D1*
X4841Y20729D1*
X4898D1*
X4662Y20629D2*
Y20485D1*
X4648Y20442D1*
X4619Y20428D1*
X4576D1*
X4548Y20442D1*
X4504Y20485D1*
Y20629D2*
Y20428D1*
X4369Y20729D2*
Y20485D1*
X4354Y20442D1*
X4326Y20428D1*
X4297D1*
X4412Y20629D2*
X4311D1*
X4776Y21306D2*
D42*
X4555D1*
X4665Y18854D2*
Y18509D1*
X4837Y18681D2*
X4492D1*
X4776Y17307D2*
X4555D1*
X9656Y19776D2*
D43*
Y18871D1*
X9957Y19776D2*
X9354D1*
X8862Y19474D2*
X8947Y19431D1*
X9034Y19345D1*
X9076Y19216D1*
Y19130D1*
X9034Y19001D1*
X8947Y18915D1*
X8862Y18871D1*
X8732D1*
X8646Y18915D1*
X8560Y19001D1*
X8516Y19130D1*
Y19216D1*
X8560Y19345D1*
X8646Y19431D1*
X8732Y19474D1*
X8862D1*
X8238D2*
Y19043D1*
X8196Y18915D1*
X8109Y18871D1*
X7980D1*
X7894Y18915D1*
X7765Y19043D1*
Y19474D2*
Y18871D1*
X6970Y19345D2*
X7056Y19431D1*
X7143Y19474D1*
X7271D1*
X7358Y19431D1*
X7443Y19345D1*
X7487Y19216D1*
Y19130D1*
X7443Y19001D1*
X7358Y18915D1*
X7271Y18871D1*
X7143D1*
X7056Y18915D1*
X6970Y19001D1*
X6692Y19776D2*
Y18871D1*
Y19302D2*
X6562Y19431D1*
X6476Y19474D1*
X6347D1*
X6261Y19431D1*
X6218Y19302D1*
Y18871D1*
X5290Y16818D2*
D44*
X5299Y16808D1*
X5309Y16794D1*
X5318Y16775D1*
X5323Y16751D1*
Y16732D1*
X5318Y16708D1*
X5309Y16689D1*
X5299Y16674D1*
X5290Y16665D1*
X5201Y16744D2*
X5211Y16753D1*
X5220Y16758D1*
X5235D1*
X5244Y16753D1*
X5254Y16744D1*
X5259Y16729D1*
Y16720D1*
X5254Y16706D1*
X5244Y16696D1*
X5235Y16691D1*
X5220D1*
X5211Y16696D1*
X5201Y16706D1*
X5170Y16818D2*
X5161Y16808D1*
X5151Y16794D1*
X5142Y16775D1*
X5137Y16751D1*
Y16732D1*
X5142Y16708D1*
X5151Y16689D1*
X5161Y16674D1*
X5170Y16665D1*
X4932Y16691D2*
X4970Y16792D1*
X5009Y16691D1*
X4994Y16725D2*
X4946D1*
X4901Y16792D2*
Y16691D1*
X4813Y16758D2*
Y16691D1*
Y16744D2*
X4822Y16753D1*
X4832Y16758D1*
X4846D1*
X4856Y16753D1*
X4865Y16744D1*
X4870Y16729D1*
Y16720D1*
X4865Y16706D1*
X4856Y16696D1*
X4846Y16691D1*
X4832D1*
X4822Y16696D1*
X4813Y16706D1*
X4782Y16792D2*
X4777Y16787D1*
X4772Y16792D1*
X4777Y16797D1*
X4782Y16792D1*
X4777Y16758D2*
Y16691D1*
X4742Y16758D2*
Y16691D1*
Y16739D2*
X4727Y16753D1*
X4718Y16758D1*
X4703D1*
X4694Y16753D1*
X4689Y16739D1*
Y16691D1*
X4484D2*
Y16792D1*
X4523Y16691D1*
X4561Y16792D1*
Y16691D1*
X4396Y16758D2*
Y16691D1*
Y16744D2*
X4406Y16753D1*
X4415Y16758D1*
X4430D1*
X4439Y16753D1*
X4449Y16744D1*
X4454Y16729D1*
Y16720D1*
X4449Y16706D1*
X4439Y16696D1*
X4430Y16691D1*
X4415D1*
X4406Y16696D1*
X4396Y16706D1*
X4365Y16758D2*
Y16710D1*
X4361Y16696D1*
X4351Y16691D1*
X4337D1*
X4327Y16696D1*
X4313Y16710D1*
Y16758D2*
Y16691D1*
X4282Y16729D2*
X4224D1*
Y16739D1*
X4229Y16749D1*
X4234Y16753D1*
X4244Y16758D1*
X4258D1*
X4267Y16753D1*
X4277Y16744D1*
X4282Y16729D1*
Y16720D1*
X4277Y16706D1*
X4267Y16696D1*
X4258Y16691D1*
X4244D1*
X4234Y16696D1*
X4224Y16706D1*
X4194Y16758D2*
Y16691D1*
Y16729D2*
X4189Y16744D1*
X4179Y16753D1*
X4170Y16758D1*
X4155D1*
X10620Y21237D2*
D41*
X10606Y21208D1*
X10563Y21165D1*
X10864D1*
X10635Y21058D2*
X10620D1*
X10591Y21043D1*
X10577Y21029D1*
X10563Y21000D1*
Y20943D1*
X10577Y20914D1*
X10591Y20900D1*
X10620Y20886D1*
X10649D1*
X10678Y20900D1*
X10720Y20929D1*
X10864Y21072D1*
Y20871D1*
X10563Y20779D2*
X10864Y20664D1*
X10563Y20549D1*
Y20064D2*
X10864D1*
X10563Y20165D2*
Y19964D1*
X10663Y19800D2*
X10677Y19828D1*
X10706Y19857D1*
X10749Y19871D1*
X10778D1*
X10821Y19857D1*
X10849Y19828D1*
X10864Y19800D1*
Y19757D1*
X10849Y19728D1*
X10821Y19699D1*
X10778Y19685D1*
X10749D1*
X10706Y19699D1*
X10677Y19728D1*
X10663Y19757D1*
Y19800D1*
Y19592D2*
X10807D1*
X10849Y19578D1*
X10864Y19549D1*
Y19506D1*
X10849Y19477D1*
X10807Y19434D1*
X10663D2*
X10864D1*
X10706Y19169D2*
X10677Y19198D1*
X10663Y19227D1*
Y19270D1*
X10677Y19298D1*
X10706Y19327D1*
X10749Y19341D1*
X10778D1*
X10821Y19327D1*
X10849Y19298D1*
X10864Y19270D1*
Y19227D1*
X10849Y19198D1*
X10821Y19169D1*
X10563Y19076D2*
X10864D1*
X10720D2*
X10677Y19033D1*
X10663Y19004D1*
Y18961D1*
X10677Y18933D1*
X10720Y18919D1*
X10864D1*
X10606Y18333D2*
X10577Y18362D1*
X10563Y18405D1*
Y18462D1*
X10577Y18505D1*
X10606Y18534D1*
X10634D1*
X10663Y18520D1*
X10677Y18505D1*
X10692Y18477D1*
X10720Y18391D1*
X10735Y18362D1*
X10749Y18348D1*
X10778Y18333D1*
X10821D1*
X10849Y18362D1*
X10864Y18405D1*
Y18462D1*
X10849Y18505D1*
X10821Y18534D1*
X10663Y18241D2*
X10864Y18183D1*
X10663Y18126D1*
X10864Y18069D1*
X10663Y18011D1*
X10563Y17919D2*
X10577Y17904D1*
X10563Y17890D1*
X10548Y17904D1*
X10563Y17919D1*
X10663Y17904D2*
X10864D1*
X10563Y17754D2*
X10807D1*
X10849Y17740D1*
X10864Y17711D1*
Y17682D1*
X10663Y17797D2*
Y17697D1*
X10706Y17417D2*
X10677Y17446D1*
X10663Y17475D1*
Y17518D1*
X10677Y17547D1*
X10706Y17575D1*
X10749Y17590D1*
X10778D1*
X10821Y17575D1*
X10849Y17547D1*
X10864Y17518D1*
Y17475D1*
X10849Y17446D1*
X10821Y17417D1*
X10563Y17325D2*
X10864D1*
X10720D2*
X10677Y17282D1*
X10663Y17253D1*
Y17210D1*
X10677Y17181D1*
X10720Y17167D1*
X10864D1*
X11202Y18590D2*
D12*
X11192D1*
X11173Y18581D1*
X11163Y18571D1*
X11154Y18552D1*
Y18514D1*
X11163Y18495D1*
X11173Y18485D1*
X11192Y18475D1*
X11211D1*
X11230Y18485D1*
X11259Y18504D1*
X11355Y18600D1*
Y18466D1*
X11335Y18395D2*
X11345Y18404D1*
X11355Y18395D1*
X11345Y18385D1*
X11335Y18395D1*
X11154Y18208D2*
Y18304D1*
X11240Y18313D1*
X11230Y18304D1*
X11221Y18275D1*
Y18247D1*
X11230Y18218D1*
X11249Y18199D1*
X11278Y18189D1*
X11297D1*
X11326Y18199D1*
X11345Y18218D1*
X11355Y18247D1*
Y18275D1*
X11345Y18304D1*
X11335Y18313D1*
X11316Y18323D1*
X11355Y17974D2*
X11154Y18051D1*
X11355Y18127D1*
X11288Y18099D2*
Y18003D1*
X11355Y17565D2*
X11154D1*
X11355Y17642D1*
X11154Y17718D1*
X11355D1*
X11221Y17389D2*
X11355D1*
X11249D2*
X11230Y17408D1*
X11221Y17427D1*
Y17455D1*
X11230Y17475D1*
X11249Y17494D1*
X11278Y17503D1*
X11297D1*
X11326Y17494D1*
X11345Y17475D1*
X11355Y17455D1*
Y17427D1*
X11345Y17408D1*
X11326Y17389D1*
X11221Y17327D2*
X11355Y17222D1*
X11221D2*
X11355Y17327D1*
X13421Y18047D2*
D41*
X13393Y18062D1*
X13349Y18104D1*
Y17803D1*
X13242Y18033D2*
Y18047D1*
X13228Y18076D1*
X13214Y18090D1*
X13185Y18104D1*
X13127D1*
X13099Y18090D1*
X13085Y18076D1*
X13070Y18047D1*
Y18018D1*
X13085Y17990D1*
X13113Y17947D1*
X13257Y17803D1*
X13056D1*
X12963Y18105D2*
X12848Y17803D1*
X12734Y18105D1*
X13101Y20042D2*
D42*
Y19697D1*
X13273Y19869D2*
X12929D1*
X13335Y20729D2*
D41*
X13364Y20715D1*
X13392Y20686D1*
X13407Y20658D1*
X13421Y20615D1*
Y20543D1*
X13407Y20500D1*
X13392Y20471D1*
X13364Y20443D1*
X13335Y20428D1*
X13277D1*
X13249Y20443D1*
X13220Y20471D1*
X13206Y20500D1*
X13192Y20543D1*
Y20615D1*
X13206Y20658D1*
X13220Y20686D1*
X13249Y20715D1*
X13277Y20729D1*
X13335D1*
X13099Y20629D2*
Y20485D1*
X13085Y20443D1*
X13056Y20428D1*
X13013D1*
X12984Y20443D1*
X12941Y20485D1*
Y20629D2*
Y20428D1*
X12805Y20729D2*
Y20485D1*
X12791Y20443D1*
X12762Y20428D1*
X12734D1*
X12848Y20629D2*
X12748D1*
X13213Y21307D2*
D42*
X12991D1*
X13101Y18854D2*
Y18510D1*
X13273Y18682D2*
X12929D1*
X13213Y17307D2*
X12991D1*
X18092Y19776D2*
D43*
Y18872D1*
X18394Y19776D2*
X17791D1*
X17298Y19475D2*
X17384Y19432D1*
X17470Y19345D1*
X17513Y19216D1*
Y19130D1*
X17470Y19001D1*
X17384Y18915D1*
X17298Y18872D1*
X17169D1*
X17082Y18915D1*
X16997Y19001D1*
X16953Y19130D1*
Y19216D1*
X16997Y19345D1*
X17082Y19432D1*
X17169Y19475D1*
X17298D1*
X16675D2*
Y19044D1*
X16632Y18915D1*
X16546Y18872D1*
X16416D1*
X16331Y18915D1*
X16202Y19044D1*
Y19475D2*
Y18872D1*
X15406Y19345D2*
X15493Y19432D1*
X15579Y19475D1*
X15708D1*
X15794Y19432D1*
X15880Y19345D1*
X15924Y19216D1*
Y19130D1*
X15880Y19001D1*
X15794Y18915D1*
X15708Y18872D1*
X15579D1*
X15493Y18915D1*
X15406Y19001D1*
X15128Y19776D2*
Y18872D1*
Y19302D2*
X14999Y19432D1*
X14913Y19475D1*
X14783D1*
X14698Y19432D1*
X14655Y19302D1*
Y18872D1*
X13726Y16818D2*
D44*
X13736Y16809D1*
X13745Y16794D1*
X13755Y16775D1*
X13760Y16751D1*
Y16732D1*
X13755Y16708D1*
X13745Y16689D1*
X13736Y16675D1*
X13726Y16665D1*
X13638Y16744D2*
X13647Y16754D1*
X13657Y16759D1*
X13671D1*
X13681Y16754D1*
X13690Y16744D1*
X13695Y16730D1*
Y16720D1*
X13690Y16706D1*
X13681Y16696D1*
X13671Y16692D1*
X13657D1*
X13647Y16696D1*
X13638Y16706D1*
X13607Y16818D2*
X13597Y16809D1*
X13588Y16794D1*
X13578Y16775D1*
X13573Y16751D1*
Y16732D1*
X13578Y16708D1*
X13588Y16689D1*
X13597Y16675D1*
X13607Y16665D1*
X13369Y16692D2*
X13407Y16792D1*
X13445Y16692D1*
X13431Y16725D2*
X13383D1*
X13338Y16792D2*
Y16692D1*
X13250Y16759D2*
Y16692D1*
Y16744D2*
X13259Y16754D1*
X13269Y16759D1*
X13283D1*
X13293Y16754D1*
X13302Y16744D1*
X13307Y16730D1*
Y16720D1*
X13302Y16706D1*
X13293Y16696D1*
X13283Y16692D1*
X13269D1*
X13259Y16696D1*
X13250Y16706D1*
X13219Y16792D2*
X13214Y16787D1*
X13209Y16792D1*
X13214Y16797D1*
X13219Y16792D1*
X13214Y16759D2*
Y16692D1*
X13178Y16759D2*
Y16692D1*
Y16739D2*
X13164Y16754D1*
X13154Y16759D1*
X13140D1*
X13130Y16754D1*
X13126Y16739D1*
Y16692D1*
X12921D2*
Y16792D1*
X12959Y16692D1*
X12998Y16792D1*
Y16692D1*
X12833Y16759D2*
Y16692D1*
Y16744D2*
X12842Y16754D1*
X12852Y16759D1*
X12866D1*
X12876Y16754D1*
X12885Y16744D1*
X12890Y16730D1*
Y16720D1*
X12885Y16706D1*
X12876Y16696D1*
X12866Y16692D1*
X12852D1*
X12842Y16696D1*
X12833Y16706D1*
X12802Y16759D2*
Y16711D1*
X12797Y16696D1*
X12788Y16692D1*
X12773D1*
X12764Y16696D1*
X12749Y16711D1*
Y16759D2*
Y16692D1*
X12718Y16730D2*
X12661D1*
Y16739D1*
X12666Y16749D1*
X12671Y16754D1*
X12680Y16759D1*
X12695D1*
X12704Y16754D1*
X12714Y16744D1*
X12718Y16730D1*
Y16720D1*
X12714Y16706D1*
X12704Y16696D1*
X12695Y16692D1*
X12680D1*
X12671Y16696D1*
X12661Y16706D1*
X12630Y16759D2*
Y16692D1*
Y16730D2*
X12625Y16744D1*
X12616Y16754D1*
X12606Y16759D1*
X12592D1*
X19057Y21237D2*
D41*
X19042Y21208D1*
X19000Y21165D1*
X19301D1*
X19071Y21058D2*
X19057D1*
X19028Y21044D1*
X19014Y21029D1*
X19000Y21001D1*
Y20943D1*
X19014Y20915D1*
X19028Y20900D1*
X19057Y20886D1*
X19085D1*
X19114Y20900D1*
X19157Y20929D1*
X19301Y21073D1*
Y20872D1*
X18999Y20779D2*
X19301Y20664D1*
X18999Y20549D1*
Y20065D2*
X19301D1*
X18999Y20165D2*
Y19964D1*
X19100Y19800D2*
X19114Y19829D1*
X19143Y19857D1*
X19186Y19872D1*
X19214D1*
X19258Y19857D1*
X19286Y19829D1*
X19301Y19800D1*
Y19757D1*
X19286Y19728D1*
X19258Y19700D1*
X19214Y19685D1*
X19186D1*
X19143Y19700D1*
X19114Y19728D1*
X19100Y19757D1*
Y19800D1*
Y19592D2*
X19243D1*
X19286Y19578D1*
X19301Y19549D1*
Y19506D1*
X19286Y19478D1*
X19243Y19434D1*
X19100D2*
X19301D1*
X19143Y19169D2*
X19114Y19198D1*
X19100Y19227D1*
Y19270D1*
X19114Y19299D1*
X19143Y19327D1*
X19186Y19342D1*
X19214D1*
X19258Y19327D1*
X19286Y19299D1*
X19301Y19270D1*
Y19227D1*
X19286Y19198D1*
X19258Y19169D1*
X18999Y19077D2*
X19301D1*
X19157D2*
X19114Y19034D1*
X19100Y19005D1*
Y18962D1*
X19114Y18933D1*
X19157Y18919D1*
X19301D1*
X19042Y18334D2*
X19013Y18362D1*
X18999Y18405D1*
Y18463D1*
X19013Y18506D1*
X19042Y18535D1*
X19071D1*
X19100Y18520D1*
X19114Y18506D1*
X19128Y18477D1*
X19157Y18391D1*
X19171Y18362D1*
X19186Y18348D1*
X19214Y18334D1*
X19258D1*
X19286Y18362D1*
X19301Y18405D1*
Y18463D1*
X19286Y18506D1*
X19258Y18535D1*
X19100Y18241D2*
X19301Y18184D1*
X19100Y18126D1*
X19301Y18069D1*
X19100Y18012D1*
X18999Y17919D2*
X19013Y17905D1*
X18999Y17890D1*
X18985Y17905D1*
X18999Y17919D1*
X19100Y17905D2*
X19301D1*
X18999Y17754D2*
X19243D1*
X19286Y17740D1*
X19301Y17711D1*
Y17683D1*
X19100Y17797D2*
Y17697D1*
X19143Y17418D2*
X19114Y17447D1*
X19100Y17475D1*
Y17518D1*
X19114Y17547D1*
X19143Y17576D1*
X19186Y17590D1*
X19214D1*
X19258Y17576D1*
X19286Y17547D1*
X19301Y17518D1*
Y17475D1*
X19286Y17447D1*
X19258Y17418D1*
X18999Y17325D2*
X19301D1*
X19157D2*
X19114Y17282D1*
X19100Y17253D1*
Y17210D1*
X19114Y17181D1*
X19157Y17167D1*
X19301D1*
X19638Y18591D2*
D12*
X19629D1*
X19609Y18581D1*
X19600Y18572D1*
X19590Y18552D1*
Y18514D1*
X19600Y18495D1*
X19609Y18486D1*
X19629Y18476D1*
X19648D1*
X19667Y18486D1*
X19695Y18505D1*
X19791Y18600D1*
Y18466D1*
X19772Y18395D2*
X19782Y18405D1*
X19791Y18395D1*
X19782Y18385D1*
X19772Y18395D1*
X19590Y18209D2*
Y18304D1*
X19676Y18314D1*
X19667Y18304D1*
X19657Y18276D1*
Y18247D1*
X19667Y18218D1*
X19686Y18199D1*
X19715Y18190D1*
X19734D1*
X19762Y18199D1*
X19782Y18218D1*
X19791Y18247D1*
Y18276D1*
X19782Y18304D1*
X19772Y18314D1*
X19753Y18324D1*
X19791Y17975D2*
X19590Y18051D1*
X19791Y18128D1*
X19724Y18099D2*
Y18003D1*
X19791Y17565D2*
X19590D1*
X19791Y17642D1*
X19590Y17718D1*
X19791D1*
X19657Y17389D2*
X19791D1*
X19686D2*
X19667Y17408D1*
X19657Y17427D1*
Y17456D1*
X19667Y17475D1*
X19686Y17494D1*
X19715Y17504D1*
X19734D1*
X19762Y17494D1*
X19781Y17475D1*
X19791Y17456D1*
Y17427D1*
X19781Y17408D1*
X19762Y17389D1*
X19657Y17327D2*
X19791Y17222D1*
X19657D2*
X19791Y17327D1*
X4985Y11735D2*
D41*
X4956Y11749D1*
X4913Y11792D1*
Y11491D1*
X4806Y11721D2*
Y11735D1*
X4791Y11764D1*
X4777Y11778D1*
X4748Y11792D1*
X4691D1*
X4662Y11778D1*
X4648Y11764D1*
X4633Y11735D1*
Y11706D1*
X4648Y11677D1*
X4677Y11635D1*
X4820Y11491D1*
X4619D1*
X4527Y11792D2*
X4412Y11491D1*
X4297Y11792D1*
X4665Y13729D2*
D42*
Y13385D1*
X4837Y13557D2*
X4492D1*
X4898Y14417D2*
D41*
X4927Y14403D1*
X4956Y14374D1*
X4970Y14346D1*
X4984Y14302D1*
Y14230D1*
X4970Y14188D1*
X4956Y14159D1*
X4927Y14130D1*
X4898Y14116D1*
X4841D1*
X4812Y14130D1*
X4784Y14159D1*
X4769Y14188D1*
X4755Y14230D1*
Y14302D1*
X4769Y14346D1*
X4784Y14374D1*
X4812Y14403D1*
X4841Y14417D1*
X4898D1*
X4662Y14317D2*
Y14173D1*
X4648Y14130D1*
X4619Y14116D1*
X4576D1*
X4548Y14130D1*
X4504Y14173D1*
Y14317D2*
Y14116D1*
X4369Y14417D2*
Y14173D1*
X4354Y14130D1*
X4326Y14116D1*
X4297D1*
X4412Y14317D2*
X4311D1*
X4776Y14995D2*
D42*
X4555D1*
X4665Y12542D2*
Y12198D1*
X4837Y12370D2*
X4492D1*
X4776Y10995D2*
X4555D1*
X9656Y13464D2*
D43*
Y12559D1*
X9957Y13464D2*
X9354D1*
X8862Y13162D2*
X8947Y13120D1*
X9034Y13033D1*
X9076Y12904D1*
Y12818D1*
X9034Y12689D1*
X8947Y12603D1*
X8862Y12559D1*
X8732D1*
X8646Y12603D1*
X8560Y12689D1*
X8516Y12818D1*
Y12904D1*
X8560Y13033D1*
X8646Y13120D1*
X8732Y13162D1*
X8862D1*
X8238D2*
Y12732D1*
X8196Y12603D1*
X8109Y12559D1*
X7980D1*
X7894Y12603D1*
X7765Y12732D1*
Y13162D2*
Y12559D1*
X6970Y13033D2*
X7056Y13120D1*
X7143Y13162D1*
X7271D1*
X7358Y13120D1*
X7443Y13033D1*
X7487Y12904D1*
Y12818D1*
X7443Y12689D1*
X7358Y12603D1*
X7271Y12559D1*
X7143D1*
X7056Y12603D1*
X6970Y12689D1*
X6692Y13464D2*
Y12559D1*
Y12990D2*
X6562Y13120D1*
X6476Y13162D1*
X6347D1*
X6261Y13120D1*
X6218Y12990D1*
Y12559D1*
X5290Y10506D2*
D44*
X5299Y10497D1*
X5309Y10482D1*
X5318Y10463D1*
X5323Y10439D1*
Y10420D1*
X5318Y10396D1*
X5309Y10377D1*
X5299Y10363D1*
X5290Y10353D1*
X5201Y10432D2*
X5211Y10442D1*
X5220Y10446D1*
X5235D1*
X5244Y10442D1*
X5254Y10432D1*
X5259Y10418D1*
Y10408D1*
X5254Y10394D1*
X5244Y10384D1*
X5235Y10379D1*
X5220D1*
X5211Y10384D1*
X5201Y10394D1*
X5170Y10506D2*
X5161Y10497D1*
X5151Y10482D1*
X5142Y10463D1*
X5137Y10439D1*
Y10420D1*
X5142Y10396D1*
X5151Y10377D1*
X5161Y10363D1*
X5170Y10353D1*
X4932Y10379D2*
X4970Y10480D1*
X5009Y10379D1*
X4994Y10413D2*
X4946D1*
X4901Y10480D2*
Y10379D1*
X4813Y10446D2*
Y10379D1*
Y10432D2*
X4822Y10442D1*
X4832Y10446D1*
X4846D1*
X4856Y10442D1*
X4865Y10432D1*
X4870Y10418D1*
Y10408D1*
X4865Y10394D1*
X4856Y10384D1*
X4846Y10379D1*
X4832D1*
X4822Y10384D1*
X4813Y10394D1*
X4782Y10480D2*
X4777Y10475D1*
X4772Y10480D1*
X4777Y10485D1*
X4782Y10480D1*
X4777Y10446D2*
Y10379D1*
X4742Y10446D2*
Y10379D1*
Y10427D2*
X4727Y10442D1*
X4718Y10446D1*
X4703D1*
X4694Y10442D1*
X4689Y10427D1*
Y10379D1*
X4484D2*
Y10480D1*
X4523Y10379D1*
X4561Y10480D1*
Y10379D1*
X4396Y10446D2*
Y10379D1*
Y10432D2*
X4406Y10442D1*
X4415Y10446D1*
X4430D1*
X4439Y10442D1*
X4449Y10432D1*
X4454Y10418D1*
Y10408D1*
X4449Y10394D1*
X4439Y10384D1*
X4430Y10379D1*
X4415D1*
X4406Y10384D1*
X4396Y10394D1*
X4365Y10446D2*
Y10398D1*
X4361Y10384D1*
X4351Y10379D1*
X4337D1*
X4327Y10384D1*
X4313Y10398D1*
Y10446D2*
Y10379D1*
X4282Y10418D2*
X4224D1*
Y10427D1*
X4229Y10437D1*
X4234Y10442D1*
X4244Y10446D1*
X4258D1*
X4267Y10442D1*
X4277Y10432D1*
X4282Y10418D1*
Y10408D1*
X4277Y10394D1*
X4267Y10384D1*
X4258Y10379D1*
X4244D1*
X4234Y10384D1*
X4224Y10394D1*
X4194Y10446D2*
Y10379D1*
Y10418D2*
X4189Y10432D1*
X4179Y10442D1*
X4170Y10446D1*
X4155D1*
X10620Y14925D2*
D41*
X10606Y14896D1*
X10563Y14853D1*
X10864D1*
X10635Y14746D2*
X10620D1*
X10591Y14732D1*
X10577Y14717D1*
X10563Y14688D1*
Y14631D1*
X10577Y14603D1*
X10591Y14588D1*
X10620Y14574D1*
X10649D1*
X10678Y14588D1*
X10720Y14617D1*
X10864Y14760D1*
Y14559D1*
X10563Y14467D2*
X10864Y14352D1*
X10563Y14237D1*
Y13753D2*
X10864D1*
X10563Y13853D2*
Y13652D1*
X10663Y13488D2*
X10677Y13516D1*
X10706Y13545D1*
X10749Y13559D1*
X10778D1*
X10821Y13545D1*
X10849Y13516D1*
X10864Y13488D1*
Y13445D1*
X10849Y13416D1*
X10821Y13387D1*
X10778Y13373D1*
X10749D1*
X10706Y13387D1*
X10677Y13416D1*
X10663Y13445D1*
Y13488D1*
Y13280D2*
X10807D1*
X10849Y13266D1*
X10864Y13237D1*
Y13194D1*
X10849Y13165D1*
X10807Y13122D1*
X10663D2*
X10864D1*
X10706Y12857D2*
X10677Y12886D1*
X10663Y12915D1*
Y12958D1*
X10677Y12987D1*
X10706Y13015D1*
X10749Y13030D1*
X10778D1*
X10821Y13015D1*
X10849Y12987D1*
X10864Y12958D1*
Y12915D1*
X10849Y12886D1*
X10821Y12857D1*
X10563Y12765D2*
X10864D1*
X10720D2*
X10677Y12721D1*
X10663Y12693D1*
Y12650D1*
X10677Y12621D1*
X10720Y12607D1*
X10864D1*
X10606Y12022D2*
X10577Y12050D1*
X10563Y12093D1*
Y12151D1*
X10577Y12194D1*
X10606Y12222D1*
X10634D1*
X10663Y12208D1*
X10677Y12194D1*
X10692Y12165D1*
X10720Y12079D1*
X10735Y12050D1*
X10749Y12036D1*
X10778Y12022D1*
X10821D1*
X10849Y12050D1*
X10864Y12093D1*
Y12151D1*
X10849Y12194D1*
X10821Y12222D1*
X10663Y11929D2*
X10864Y11872D1*
X10663Y11814D1*
X10864Y11757D1*
X10663Y11699D1*
X10563Y11607D2*
X10577Y11593D1*
X10563Y11578D1*
X10548Y11593D1*
X10563Y11607D1*
X10663Y11593D2*
X10864D1*
X10563Y11442D2*
X10807D1*
X10849Y11428D1*
X10864Y11399D1*
Y11371D1*
X10663Y11485D2*
Y11385D1*
X10706Y11105D2*
X10677Y11134D1*
X10663Y11163D1*
Y11206D1*
X10677Y11235D1*
X10706Y11263D1*
X10749Y11278D1*
X10778D1*
X10821Y11263D1*
X10849Y11235D1*
X10864Y11206D1*
Y11163D1*
X10849Y11134D1*
X10821Y11105D1*
X10563Y11013D2*
X10864D1*
X10720D2*
X10677Y10970D1*
X10663Y10941D1*
Y10898D1*
X10677Y10869D1*
X10720Y10855D1*
X10864D1*
X11202Y12278D2*
D12*
X11192D1*
X11173Y12269D1*
X11163Y12259D1*
X11154Y12240D1*
Y12202D1*
X11163Y12183D1*
X11173Y12173D1*
X11192Y12164D1*
X11211D1*
X11230Y12173D1*
X11259Y12192D1*
X11355Y12288D1*
Y12154D1*
X11335Y12083D2*
X11345Y12092D1*
X11355Y12083D1*
X11345Y12073D1*
X11335Y12083D1*
X11154Y11897D2*
Y11992D1*
X11240Y12002D1*
X11230Y11992D1*
X11221Y11963D1*
Y11935D1*
X11230Y11906D1*
X11249Y11887D1*
X11278Y11877D1*
X11297D1*
X11326Y11887D1*
X11345Y11906D1*
X11355Y11935D1*
Y11963D1*
X11345Y11992D1*
X11335Y12002D1*
X11316Y12011D1*
X11355Y11662D2*
X11154Y11739D1*
X11355Y11816D1*
X11288Y11787D2*
Y11691D1*
X11355Y11253D2*
X11154D1*
X11355Y11330D1*
X11154Y11406D1*
X11355D1*
X11221Y11077D2*
X11355D1*
X11249D2*
X11230Y11096D1*
X11221Y11115D1*
Y11144D1*
X11230Y11163D1*
X11249Y11182D1*
X11278Y11191D1*
X11297D1*
X11326Y11182D1*
X11345Y11163D1*
X11355Y11144D1*
Y11115D1*
X11345Y11096D1*
X11326Y11077D1*
X11221Y11015D2*
X11355Y10910D1*
X11221D2*
X11355Y11015D1*
X13421Y11735D2*
D41*
X13393Y11750D1*
X13349Y11792D1*
Y11491D1*
X13242Y11721D2*
Y11735D1*
X13228Y11764D1*
X13214Y11778D1*
X13185Y11792D1*
X13127D1*
X13099Y11778D1*
X13085Y11764D1*
X13070Y11735D1*
Y11707D1*
X13085Y11678D1*
X13113Y11635D1*
X13257Y11491D1*
X13056D1*
X12963Y11793D2*
X12848Y11491D1*
X12734Y11793D1*
X13101Y13730D2*
D42*
Y13385D1*
X13273Y13557D2*
X12929D1*
X13335Y14418D2*
D41*
X13364Y14403D1*
X13392Y14374D1*
X13407Y14346D1*
X13421Y14303D1*
Y14231D1*
X13407Y14188D1*
X13392Y14159D1*
X13364Y14131D1*
X13335Y14116D1*
X13277D1*
X13249Y14131D1*
X13220Y14159D1*
X13206Y14188D1*
X13192Y14231D1*
Y14303D1*
X13206Y14346D1*
X13220Y14374D1*
X13249Y14403D1*
X13277Y14418D1*
X13335D1*
X13099Y14317D2*
Y14173D1*
X13085Y14131D1*
X13056Y14116D1*
X13013D1*
X12984Y14131D1*
X12941Y14173D1*
Y14317D2*
Y14116D1*
X12805Y14418D2*
Y14173D1*
X12791Y14131D1*
X12762Y14116D1*
X12734D1*
X12848Y14317D2*
X12748D1*
X13213Y14995D2*
D42*
X12991D1*
X13101Y12542D2*
Y12198D1*
X13273Y12370D2*
X12929D1*
X13213Y10995D2*
X12991D1*
X18092Y13464D2*
D43*
Y12560D1*
X18394Y13464D2*
X17791D1*
X17298Y13163D2*
X17384Y13120D1*
X17470Y13033D1*
X17513Y12904D1*
Y12818D1*
X17470Y12689D1*
X17384Y12604D1*
X17298Y12560D1*
X17169D1*
X17082Y12604D1*
X16997Y12689D1*
X16953Y12818D1*
Y12904D1*
X16997Y13033D1*
X17082Y13120D1*
X17169Y13163D1*
X17298D1*
X16675D2*
Y12732D1*
X16632Y12604D1*
X16546Y12560D1*
X16416D1*
X16331Y12604D1*
X16202Y12732D1*
Y13163D2*
Y12560D1*
X15406Y13033D2*
X15493Y13120D1*
X15579Y13163D1*
X15708D1*
X15794Y13120D1*
X15880Y13033D1*
X15924Y12904D1*
Y12818D1*
X15880Y12689D1*
X15794Y12604D1*
X15708Y12560D1*
X15579D1*
X15493Y12604D1*
X15406Y12689D1*
X15128Y13464D2*
Y12560D1*
Y12991D2*
X14999Y13120D1*
X14913Y13163D1*
X14783D1*
X14698Y13120D1*
X14655Y12991D1*
Y12560D1*
X13726Y10506D2*
D44*
X13736Y10497D1*
X13745Y10482D1*
X13755Y10463D1*
X13760Y10439D1*
Y10420D1*
X13755Y10396D1*
X13745Y10377D1*
X13736Y10363D1*
X13726Y10353D1*
X13638Y10432D2*
X13647Y10442D1*
X13657Y10447D1*
X13671D1*
X13681Y10442D1*
X13690Y10432D1*
X13695Y10418D1*
Y10408D1*
X13690Y10394D1*
X13681Y10385D1*
X13671Y10380D1*
X13657D1*
X13647Y10385D1*
X13638Y10394D1*
X13607Y10506D2*
X13597Y10497D1*
X13588Y10482D1*
X13578Y10463D1*
X13573Y10439D1*
Y10420D1*
X13578Y10396D1*
X13588Y10377D1*
X13597Y10363D1*
X13607Y10353D1*
X13369Y10380D2*
X13407Y10480D1*
X13445Y10380D1*
X13431Y10413D2*
X13383D1*
X13338Y10480D2*
Y10380D1*
X13250Y10447D2*
Y10380D1*
Y10432D2*
X13259Y10442D1*
X13269Y10447D1*
X13283D1*
X13293Y10442D1*
X13302Y10432D1*
X13307Y10418D1*
Y10408D1*
X13302Y10394D1*
X13293Y10385D1*
X13283Y10380D1*
X13269D1*
X13259Y10385D1*
X13250Y10394D1*
X13219Y10480D2*
X13214Y10475D1*
X13209Y10480D1*
X13214Y10485D1*
X13219Y10480D1*
X13214Y10447D2*
Y10380D1*
X13178Y10447D2*
Y10380D1*
Y10428D2*
X13164Y10442D1*
X13154Y10447D1*
X13140D1*
X13130Y10442D1*
X13126Y10428D1*
Y10380D1*
X12921D2*
Y10480D1*
X12959Y10380D1*
X12998Y10480D1*
Y10380D1*
X12833Y10447D2*
Y10380D1*
Y10432D2*
X12842Y10442D1*
X12852Y10447D1*
X12866D1*
X12876Y10442D1*
X12885Y10432D1*
X12890Y10418D1*
Y10408D1*
X12885Y10394D1*
X12876Y10385D1*
X12866Y10380D1*
X12852D1*
X12842Y10385D1*
X12833Y10394D1*
X12802Y10447D2*
Y10399D1*
X12797Y10385D1*
X12788Y10380D1*
X12773D1*
X12764Y10385D1*
X12749Y10399D1*
Y10447D2*
Y10380D1*
X12718Y10418D2*
X12661D1*
Y10428D1*
X12666Y10437D1*
X12671Y10442D1*
X12680Y10447D1*
X12695D1*
X12704Y10442D1*
X12714Y10432D1*
X12718Y10418D1*
Y10408D1*
X12714Y10394D1*
X12704Y10385D1*
X12695Y10380D1*
X12680D1*
X12671Y10385D1*
X12661Y10394D1*
X12630Y10447D2*
Y10380D1*
Y10418D2*
X12625Y10432D1*
X12616Y10442D1*
X12606Y10447D1*
X12592D1*
X19057Y14925D2*
D41*
X19042Y14896D1*
X19000Y14853D1*
X19301D1*
X19071Y14746D2*
X19057D1*
X19028Y14732D1*
X19014Y14718D1*
X19000Y14689D1*
Y14631D1*
X19014Y14603D1*
X19028Y14589D1*
X19057Y14574D1*
X19085D1*
X19114Y14589D1*
X19157Y14617D1*
X19301Y14761D1*
Y14560D1*
X18999Y14467D2*
X19301Y14352D1*
X18999Y14238D1*
Y13753D2*
X19301D1*
X18999Y13853D2*
Y13652D1*
X19100Y13488D2*
X19114Y13517D1*
X19143Y13546D1*
X19186Y13560D1*
X19214D1*
X19258Y13546D1*
X19286Y13517D1*
X19301Y13488D1*
Y13445D1*
X19286Y13416D1*
X19258Y13388D1*
X19214Y13373D1*
X19186D1*
X19143Y13388D1*
X19114Y13416D1*
X19100Y13445D1*
Y13488D1*
Y13280D2*
X19243D1*
X19286Y13266D1*
X19301Y13237D1*
Y13194D1*
X19286Y13166D1*
X19243Y13123D1*
X19100D2*
X19301D1*
X19143Y12858D2*
X19114Y12886D1*
X19100Y12915D1*
Y12958D1*
X19114Y12987D1*
X19143Y13015D1*
X19186Y13030D1*
X19214D1*
X19258Y13015D1*
X19286Y12987D1*
X19301Y12958D1*
Y12915D1*
X19286Y12886D1*
X19258Y12858D1*
X18999Y12765D2*
X19301D1*
X19157D2*
X19114Y12722D1*
X19100Y12693D1*
Y12650D1*
X19114Y12621D1*
X19157Y12607D1*
X19301D1*
X19042Y12022D2*
X19013Y12050D1*
X18999Y12094D1*
Y12151D1*
X19013Y12194D1*
X19042Y12223D1*
X19071D1*
X19100Y12208D1*
X19114Y12194D1*
X19128Y12165D1*
X19157Y12079D1*
X19171Y12050D1*
X19186Y12036D1*
X19214Y12022D1*
X19258D1*
X19286Y12050D1*
X19301Y12094D1*
Y12151D1*
X19286Y12194D1*
X19258Y12223D1*
X19100Y11929D2*
X19301Y11872D1*
X19100Y11814D1*
X19301Y11757D1*
X19100Y11700D1*
X18999Y11607D2*
X19013Y11593D1*
X18999Y11578D1*
X18985Y11593D1*
X18999Y11607D1*
X19100Y11593D2*
X19301D1*
X18999Y11443D2*
X19243D1*
X19286Y11428D1*
X19301Y11399D1*
Y11371D1*
X19100Y11486D2*
Y11385D1*
X19143Y11106D2*
X19114Y11135D1*
X19100Y11164D1*
Y11206D1*
X19114Y11235D1*
X19143Y11264D1*
X19186Y11278D1*
X19214D1*
X19258Y11264D1*
X19286Y11235D1*
X19301Y11206D1*
Y11164D1*
X19286Y11135D1*
X19258Y11106D1*
X18999Y11013D2*
X19301D1*
X19157D2*
X19114Y10970D1*
X19100Y10941D1*
Y10898D1*
X19114Y10870D1*
X19157Y10855D1*
X19301D1*
X19638Y12279D2*
D12*
X19629D1*
X19609Y12269D1*
X19600Y12260D1*
X19590Y12240D1*
Y12202D1*
X19600Y12183D1*
X19609Y12174D1*
X19629Y12164D1*
X19648D1*
X19667Y12174D1*
X19695Y12193D1*
X19791Y12288D1*
Y12154D1*
X19772Y12083D2*
X19782Y12093D1*
X19791Y12083D1*
X19782Y12073D1*
X19772Y12083D1*
X19590Y11897D2*
Y11992D1*
X19676Y12002D1*
X19667Y11992D1*
X19657Y11964D1*
Y11935D1*
X19667Y11906D1*
X19686Y11887D1*
X19715Y11878D1*
X19734D1*
X19762Y11887D1*
X19782Y11906D1*
X19791Y11935D1*
Y11964D1*
X19782Y11992D1*
X19772Y12002D1*
X19753Y12012D1*
X19791Y11663D2*
X19590Y11739D1*
X19791Y11816D1*
X19724Y11787D2*
Y11691D1*
X19791Y11254D2*
X19590D1*
X19791Y11330D1*
X19590Y11407D1*
X19791D1*
X19657Y11077D2*
X19791D1*
X19686D2*
X19667Y11096D1*
X19657Y11115D1*
Y11144D1*
X19667Y11163D1*
X19686Y11182D1*
X19715Y11192D1*
X19734D1*
X19762Y11182D1*
X19781Y11163D1*
X19791Y11144D1*
Y11115D1*
X19781Y11096D1*
X19762Y11077D1*
X19657Y11015D2*
X19791Y10910D1*
X19657D2*
X19791Y11015D1*
X4985Y5423D2*
D41*
X4956Y5438D1*
X4913Y5481D1*
Y5180D1*
X4806Y5409D2*
Y5423D1*
X4791Y5452D1*
X4777Y5466D1*
X4748Y5481D1*
X4691D1*
X4662Y5466D1*
X4648Y5452D1*
X4633Y5423D1*
Y5395D1*
X4648Y5366D1*
X4677Y5323D1*
X4820Y5180D1*
X4619D1*
X4527Y5481D2*
X4412Y5180D1*
X4297Y5481D1*
X4665Y7418D2*
D42*
Y7073D1*
X4837Y7245D2*
X4492D1*
X4898Y8106D2*
D41*
X4927Y8091D1*
X4956Y8063D1*
X4970Y8034D1*
X4984Y7991D1*
Y7919D1*
X4970Y7876D1*
X4956Y7847D1*
X4927Y7819D1*
X4898Y7804D1*
X4841D1*
X4812Y7819D1*
X4784Y7847D1*
X4769Y7876D1*
X4755Y7919D1*
Y7991D1*
X4769Y8034D1*
X4784Y8063D1*
X4812Y8091D1*
X4841Y8106D1*
X4898D1*
X4662Y8005D2*
Y7862D1*
X4648Y7819D1*
X4619Y7804D1*
X4576D1*
X4548Y7819D1*
X4504Y7862D1*
Y8005D2*
Y7804D1*
X4369Y8106D2*
Y7862D1*
X4354Y7819D1*
X4326Y7804D1*
X4297D1*
X4412Y8005D2*
X4311D1*
X4776Y8683D2*
D42*
X4555D1*
X4665Y6231D2*
Y5886D1*
X4837Y6058D2*
X4492D1*
X4776Y4683D2*
X4555D1*
X9656Y7152D2*
D43*
Y6248D1*
X9957Y7152D2*
X9354D1*
X8862Y6851D2*
X8947Y6808D1*
X9034Y6722D1*
X9076Y6592D1*
Y6507D1*
X9034Y6377D1*
X8947Y6292D1*
X8862Y6248D1*
X8732D1*
X8646Y6292D1*
X8560Y6377D1*
X8516Y6507D1*
Y6592D1*
X8560Y6722D1*
X8646Y6808D1*
X8732Y6851D1*
X8862D1*
X8238D2*
Y6420D1*
X8196Y6292D1*
X8109Y6248D1*
X7980D1*
X7894Y6292D1*
X7765Y6420D1*
Y6851D2*
Y6248D1*
X6970Y6722D2*
X7056Y6808D1*
X7143Y6851D1*
X7271D1*
X7358Y6808D1*
X7443Y6722D1*
X7487Y6592D1*
Y6507D1*
X7443Y6377D1*
X7358Y6292D1*
X7271Y6248D1*
X7143D1*
X7056Y6292D1*
X6970Y6377D1*
X6692Y7152D2*
Y6248D1*
Y6679D2*
X6562Y6808D1*
X6476Y6851D1*
X6347D1*
X6261Y6808D1*
X6218Y6679D1*
Y6248D1*
X5290Y4195D2*
D44*
X5299Y4185D1*
X5309Y4171D1*
X5318Y4152D1*
X5323Y4128D1*
Y4108D1*
X5318Y4085D1*
X5309Y4065D1*
X5299Y4051D1*
X5290Y4042D1*
X5201Y4120D2*
X5211Y4130D1*
X5220Y4135D1*
X5235D1*
X5244Y4130D1*
X5254Y4120D1*
X5259Y4106D1*
Y4097D1*
X5254Y4082D1*
X5244Y4073D1*
X5235Y4068D1*
X5220D1*
X5211Y4073D1*
X5201Y4082D1*
X5170Y4195D2*
X5161Y4185D1*
X5151Y4171D1*
X5142Y4152D1*
X5137Y4128D1*
Y4108D1*
X5142Y4085D1*
X5151Y4065D1*
X5161Y4051D1*
X5170Y4042D1*
X4932Y4068D2*
X4970Y4168D1*
X5009Y4068D1*
X4994Y4101D2*
X4946D1*
X4901Y4168D2*
Y4068D1*
X4813Y4135D2*
Y4068D1*
Y4120D2*
X4822Y4130D1*
X4832Y4135D1*
X4846D1*
X4856Y4130D1*
X4865Y4120D1*
X4870Y4106D1*
Y4097D1*
X4865Y4082D1*
X4856Y4073D1*
X4846Y4068D1*
X4832D1*
X4822Y4073D1*
X4813Y4082D1*
X4782Y4168D2*
X4777Y4164D1*
X4772Y4168D1*
X4777Y4173D1*
X4782Y4168D1*
X4777Y4135D2*
Y4068D1*
X4742Y4135D2*
Y4068D1*
Y4116D2*
X4727Y4130D1*
X4718Y4135D1*
X4703D1*
X4694Y4130D1*
X4689Y4116D1*
Y4068D1*
X4484D2*
Y4168D1*
X4523Y4068D1*
X4561Y4168D1*
Y4068D1*
X4396Y4135D2*
Y4068D1*
Y4120D2*
X4406Y4130D1*
X4415Y4135D1*
X4430D1*
X4439Y4130D1*
X4449Y4120D1*
X4454Y4106D1*
Y4097D1*
X4449Y4082D1*
X4439Y4073D1*
X4430Y4068D1*
X4415D1*
X4406Y4073D1*
X4396Y4082D1*
X4365Y4135D2*
Y4087D1*
X4361Y4073D1*
X4351Y4068D1*
X4337D1*
X4327Y4073D1*
X4313Y4087D1*
Y4135D2*
Y4068D1*
X4282Y4106D2*
X4224D1*
Y4116D1*
X4229Y4125D1*
X4234Y4130D1*
X4244Y4135D1*
X4258D1*
X4267Y4130D1*
X4277Y4120D1*
X4282Y4106D1*
Y4097D1*
X4277Y4082D1*
X4267Y4073D1*
X4258Y4068D1*
X4244D1*
X4234Y4073D1*
X4224Y4082D1*
X4194Y4135D2*
Y4068D1*
Y4106D2*
X4189Y4120D1*
X4179Y4130D1*
X4170Y4135D1*
X4155D1*
X10620Y8613D2*
D41*
X10606Y8585D1*
X10563Y8542D1*
X10864D1*
X10635Y8434D2*
X10620D1*
X10591Y8420D1*
X10577Y8406D1*
X10563Y8377D1*
Y8320D1*
X10577Y8291D1*
X10591Y8277D1*
X10620Y8262D1*
X10649D1*
X10678Y8277D1*
X10720Y8305D1*
X10864Y8449D1*
Y8248D1*
X10563Y8155D2*
X10864Y8041D1*
X10563Y7926D1*
Y7441D2*
X10864D1*
X10563Y7542D2*
Y7341D1*
X10663Y7176D2*
X10677Y7205D1*
X10706Y7234D1*
X10749Y7248D1*
X10778D1*
X10821Y7234D1*
X10849Y7205D1*
X10864Y7176D1*
Y7133D1*
X10849Y7104D1*
X10821Y7076D1*
X10778Y7061D1*
X10749D1*
X10706Y7076D1*
X10677Y7104D1*
X10663Y7133D1*
Y7176D1*
Y6969D2*
X10807D1*
X10849Y6954D1*
X10864Y6926D1*
Y6882D1*
X10849Y6854D1*
X10807Y6811D1*
X10663D2*
X10864D1*
X10706Y6546D2*
X10677Y6575D1*
X10663Y6603D1*
Y6646D1*
X10677Y6675D1*
X10706Y6704D1*
X10749Y6718D1*
X10778D1*
X10821Y6704D1*
X10849Y6675D1*
X10864Y6646D1*
Y6603D1*
X10849Y6575D1*
X10821Y6546D1*
X10563Y6453D2*
X10864D1*
X10720D2*
X10677Y6410D1*
X10663Y6381D1*
Y6338D1*
X10677Y6309D1*
X10720Y6295D1*
X10864D1*
X10606Y5710D2*
X10577Y5739D1*
X10563Y5782D1*
Y5839D1*
X10577Y5882D1*
X10606Y5911D1*
X10634D1*
X10663Y5896D1*
X10677Y5882D1*
X10692Y5854D1*
X10720Y5767D1*
X10735Y5739D1*
X10749Y5724D1*
X10778Y5710D1*
X10821D1*
X10849Y5739D1*
X10864Y5782D1*
Y5839D1*
X10849Y5882D1*
X10821Y5911D1*
X10663Y5617D2*
X10864Y5560D1*
X10663Y5503D1*
X10864Y5445D1*
X10663Y5388D1*
X10563Y5295D2*
X10577Y5281D1*
X10563Y5266D1*
X10548Y5281D1*
X10563Y5295D1*
X10663Y5281D2*
X10864D1*
X10563Y5131D2*
X10807D1*
X10849Y5116D1*
X10864Y5088D1*
Y5059D1*
X10663Y5174D2*
Y5073D1*
X10706Y4794D2*
X10677Y4823D1*
X10663Y4852D1*
Y4894D1*
X10677Y4923D1*
X10706Y4952D1*
X10749Y4966D1*
X10778D1*
X10821Y4952D1*
X10849Y4923D1*
X10864Y4894D1*
Y4852D1*
X10849Y4823D1*
X10821Y4794D1*
X10563Y4701D2*
X10864D1*
X10720D2*
X10677Y4658D1*
X10663Y4629D1*
Y4586D1*
X10677Y4558D1*
X10720Y4544D1*
X10864D1*
X11202Y5967D2*
D12*
X11192D1*
X11173Y5957D1*
X11163Y5948D1*
X11154Y5929D1*
Y5890D1*
X11163Y5871D1*
X11173Y5862D1*
X11192Y5852D1*
X11211D1*
X11230Y5862D1*
X11259Y5881D1*
X11355Y5977D1*
Y5843D1*
X11335Y5771D2*
X11345Y5781D1*
X11355Y5771D1*
X11345Y5762D1*
X11335Y5771D1*
X11154Y5585D2*
Y5681D1*
X11240Y5690D1*
X11230Y5681D1*
X11221Y5652D1*
Y5623D1*
X11230Y5595D1*
X11249Y5575D1*
X11278Y5566D1*
X11297D1*
X11326Y5575D1*
X11345Y5595D1*
X11355Y5623D1*
Y5652D1*
X11345Y5681D1*
X11335Y5690D1*
X11316Y5700D1*
X11355Y5351D2*
X11154Y5428D1*
X11355Y5504D1*
X11288Y5475D2*
Y5380D1*
X11355Y4942D2*
X11154D1*
X11355Y5018D1*
X11154Y5095D1*
X11355D1*
X11221Y4765D2*
X11355D1*
X11249D2*
X11230Y4784D1*
X11221Y4804D1*
Y4832D1*
X11230Y4851D1*
X11249Y4870D1*
X11278Y4880D1*
X11297D1*
X11326Y4870D1*
X11345Y4851D1*
X11355Y4832D1*
Y4804D1*
X11345Y4784D1*
X11326Y4765D1*
X11221Y4704D2*
X11355Y4598D1*
X11221D2*
X11355Y4704D1*
X13421Y5423D2*
D41*
X13393Y5438D1*
X13349Y5481D1*
Y5180D1*
X13242Y5409D2*
Y5423D1*
X13228Y5452D1*
X13214Y5466D1*
X13185Y5481D1*
X13127D1*
X13099Y5466D1*
X13085Y5452D1*
X13070Y5423D1*
Y5395D1*
X13085Y5366D1*
X13113Y5323D1*
X13257Y5180D1*
X13056D1*
X12963Y5481D2*
X12848Y5180D1*
X12734Y5481D1*
X13101Y7418D2*
D42*
Y7073D1*
X13273Y7245D2*
X12929D1*
X13335Y8106D2*
D41*
X13364Y8091D1*
X13392Y8063D1*
X13407Y8034D1*
X13421Y7991D1*
Y7919D1*
X13407Y7876D1*
X13392Y7847D1*
X13364Y7819D1*
X13335Y7804D1*
X13277D1*
X13249Y7819D1*
X13220Y7847D1*
X13206Y7876D1*
X13192Y7919D1*
Y7991D1*
X13206Y8034D1*
X13220Y8063D1*
X13249Y8091D1*
X13277Y8106D1*
X13335D1*
X13099Y8005D2*
Y7862D1*
X13085Y7819D1*
X13056Y7804D1*
X13013D1*
X12984Y7819D1*
X12941Y7862D1*
Y8005D2*
Y7804D1*
X12805Y8106D2*
Y7862D1*
X12791Y7819D1*
X12762Y7804D1*
X12734D1*
X12848Y8005D2*
X12748D1*
X13213Y8683D2*
D42*
X12991D1*
X13101Y6231D2*
Y5886D1*
X13273Y6058D2*
X12929D1*
X13213Y4683D2*
X12991D1*
X18092Y7152D2*
D43*
Y6248D1*
X18394Y7152D2*
X17791D1*
X17298Y6851D2*
X17384Y6808D1*
X17470Y6722D1*
X17513Y6592D1*
Y6507D1*
X17470Y6377D1*
X17384Y6292D1*
X17298Y6248D1*
X17169D1*
X17082Y6292D1*
X16997Y6377D1*
X16953Y6507D1*
Y6592D1*
X16997Y6722D1*
X17082Y6808D1*
X17169Y6851D1*
X17298D1*
X16675D2*
Y6420D1*
X16632Y6292D1*
X16546Y6248D1*
X16416D1*
X16331Y6292D1*
X16202Y6420D1*
Y6851D2*
Y6248D1*
X15406Y6722D2*
X15493Y6808D1*
X15579Y6851D1*
X15708D1*
X15794Y6808D1*
X15880Y6722D1*
X15924Y6592D1*
Y6507D1*
X15880Y6377D1*
X15794Y6292D1*
X15708Y6248D1*
X15579D1*
X15493Y6292D1*
X15406Y6377D1*
X15128Y7152D2*
Y6248D1*
Y6679D2*
X14999Y6808D1*
X14913Y6851D1*
X14783D1*
X14698Y6808D1*
X14655Y6679D1*
Y6248D1*
X13726Y4195D2*
D44*
X13736Y4185D1*
X13745Y4171D1*
X13755Y4152D1*
X13760Y4128D1*
Y4108D1*
X13755Y4085D1*
X13745Y4065D1*
X13736Y4051D1*
X13726Y4042D1*
X13638Y4120D2*
X13647Y4130D1*
X13657Y4135D1*
X13671D1*
X13681Y4130D1*
X13690Y4120D1*
X13695Y4106D1*
Y4097D1*
X13690Y4082D1*
X13681Y4073D1*
X13671Y4068D1*
X13657D1*
X13647Y4073D1*
X13638Y4082D1*
X13607Y4195D2*
X13597Y4185D1*
X13588Y4171D1*
X13578Y4152D1*
X13573Y4128D1*
Y4108D1*
X13578Y4085D1*
X13588Y4065D1*
X13597Y4051D1*
X13607Y4042D1*
X13369Y4068D2*
X13407Y4168D1*
X13445Y4068D1*
X13431Y4101D2*
X13383D1*
X13338Y4168D2*
Y4068D1*
X13250Y4135D2*
Y4068D1*
Y4120D2*
X13259Y4130D1*
X13269Y4135D1*
X13283D1*
X13293Y4130D1*
X13302Y4120D1*
X13307Y4106D1*
Y4097D1*
X13302Y4082D1*
X13293Y4073D1*
X13283Y4068D1*
X13269D1*
X13259Y4073D1*
X13250Y4082D1*
X13219Y4168D2*
X13214Y4164D1*
X13209Y4168D1*
X13214Y4173D1*
X13219Y4168D1*
X13214Y4135D2*
Y4068D1*
X13178Y4135D2*
Y4068D1*
Y4116D2*
X13164Y4130D1*
X13154Y4135D1*
X13140D1*
X13130Y4130D1*
X13126Y4116D1*
Y4068D1*
X12921D2*
Y4168D1*
X12959Y4068D1*
X12998Y4168D1*
Y4068D1*
X12833Y4135D2*
Y4068D1*
Y4120D2*
X12842Y4130D1*
X12852Y4135D1*
X12866D1*
X12876Y4130D1*
X12885Y4120D1*
X12890Y4106D1*
Y4097D1*
X12885Y4082D1*
X12876Y4073D1*
X12866Y4068D1*
X12852D1*
X12842Y4073D1*
X12833Y4082D1*
X12802Y4135D2*
Y4087D1*
X12797Y4073D1*
X12788Y4068D1*
X12773D1*
X12764Y4073D1*
X12749Y4087D1*
Y4135D2*
Y4068D1*
X12718Y4106D2*
X12661D1*
Y4116D1*
X12666Y4125D1*
X12671Y4130D1*
X12680Y4135D1*
X12695D1*
X12704Y4130D1*
X12714Y4120D1*
X12718Y4106D1*
Y4097D1*
X12714Y4082D1*
X12704Y4073D1*
X12695Y4068D1*
X12680D1*
X12671Y4073D1*
X12661Y4082D1*
X12630Y4135D2*
Y4068D1*
Y4106D2*
X12625Y4120D1*
X12616Y4130D1*
X12606Y4135D1*
X12592D1*
X19057Y8613D2*
D41*
X19042Y8585D1*
X19000Y8542D1*
X19301D1*
X19071Y8434D2*
X19057D1*
X19028Y8420D1*
X19014Y8406D1*
X19000Y8377D1*
Y8320D1*
X19014Y8291D1*
X19028Y8277D1*
X19057Y8262D1*
X19085D1*
X19114Y8277D1*
X19157Y8305D1*
X19301Y8449D1*
Y8248D1*
X18999Y8155D2*
X19301Y8041D1*
X18999Y7926D1*
Y7441D2*
X19301D1*
X18999Y7542D2*
Y7341D1*
X19100Y7176D2*
X19114Y7205D1*
X19143Y7234D1*
X19186Y7248D1*
X19214D1*
X19258Y7234D1*
X19286Y7205D1*
X19301Y7176D1*
Y7133D1*
X19286Y7104D1*
X19258Y7076D1*
X19214Y7061D1*
X19186D1*
X19143Y7076D1*
X19114Y7104D1*
X19100Y7133D1*
Y7176D1*
Y6969D2*
X19243D1*
X19286Y6954D1*
X19301Y6926D1*
Y6882D1*
X19286Y6854D1*
X19243Y6811D1*
X19100D2*
X19301D1*
X19143Y6546D2*
X19114Y6575D1*
X19100Y6603D1*
Y6646D1*
X19114Y6675D1*
X19143Y6704D1*
X19186Y6718D1*
X19214D1*
X19258Y6704D1*
X19286Y6675D1*
X19301Y6646D1*
Y6603D1*
X19286Y6575D1*
X19258Y6546D1*
X18999Y6453D2*
X19301D1*
X19157D2*
X19114Y6410D1*
X19100Y6381D1*
Y6338D1*
X19114Y6309D1*
X19157Y6295D1*
X19301D1*
X19042Y5710D2*
X19013Y5739D1*
X18999Y5782D1*
Y5839D1*
X19013Y5882D1*
X19042Y5911D1*
X19071D1*
X19100Y5896D1*
X19114Y5882D1*
X19128Y5854D1*
X19157Y5767D1*
X19171Y5739D1*
X19186Y5724D1*
X19214Y5710D1*
X19258D1*
X19286Y5739D1*
X19301Y5782D1*
Y5839D1*
X19286Y5882D1*
X19258Y5911D1*
X19100Y5617D2*
X19301Y5560D1*
X19100Y5503D1*
X19301Y5445D1*
X19100Y5388D1*
X18999Y5295D2*
X19013Y5281D1*
X18999Y5266D1*
X18985Y5281D1*
X18999Y5295D1*
X19100Y5281D2*
X19301D1*
X18999Y5131D2*
X19243D1*
X19286Y5116D1*
X19301Y5088D1*
Y5059D1*
X19100Y5174D2*
Y5073D1*
X19143Y4794D2*
X19114Y4823D1*
X19100Y4852D1*
Y4894D1*
X19114Y4923D1*
X19143Y4952D1*
X19186Y4966D1*
X19214D1*
X19258Y4952D1*
X19286Y4923D1*
X19301Y4894D1*
Y4852D1*
X19286Y4823D1*
X19258Y4794D1*
X18999Y4701D2*
X19301D1*
X19157D2*
X19114Y4658D1*
X19100Y4629D1*
Y4586D1*
X19114Y4558D1*
X19157Y4544D1*
X19301D1*
X19638Y5967D2*
D12*
X19629D1*
X19609Y5957D1*
X19600Y5948D1*
X19590Y5929D1*
Y5890D1*
X19600Y5871D1*
X19609Y5862D1*
X19629Y5852D1*
X19648D1*
X19667Y5862D1*
X19695Y5881D1*
X19791Y5977D1*
Y5843D1*
X19772Y5771D2*
X19782Y5781D1*
X19791Y5771D1*
X19782Y5762D1*
X19772Y5771D1*
X19590Y5585D2*
Y5681D1*
X19676Y5690D1*
X19667Y5681D1*
X19657Y5652D1*
Y5623D1*
X19667Y5595D1*
X19686Y5575D1*
X19715Y5566D1*
X19734D1*
X19762Y5575D1*
X19782Y5595D1*
X19791Y5623D1*
Y5652D1*
X19782Y5681D1*
X19772Y5690D1*
X19753Y5700D1*
X19791Y5351D2*
X19590Y5428D1*
X19791Y5504D1*
X19724Y5475D2*
Y5380D1*
X19791Y4942D2*
X19590D1*
X19791Y5018D1*
X19590Y5095D1*
X19791D1*
X19657Y4765D2*
X19791D1*
X19686D2*
X19667Y4784D1*
X19657Y4804D1*
Y4832D1*
X19667Y4851D1*
X19686Y4870D1*
X19715Y4880D1*
X19734D1*
X19762Y4870D1*
X19781Y4851D1*
X19791Y4832D1*
Y4804D1*
X19781Y4784D1*
X19762Y4765D1*
X19657Y4704D2*
X19791Y4598D1*
X19657D2*
X19791Y4704D1*
M02*
