G04 DipTrace 2.4.0.2*
%INTouchSwitch.toplayer.ger*%
%MOIN*%
%ADD13C,0.0118*%
%ADD15R,0.0906X0.0906*%
%ADD16R,0.063X0.0709*%
%ADD18R,0.0256X0.0413*%
%ADD20R,0.0709X0.0551*%
%ADD21R,0.0591X0.0591*%
%ADD22R,0.0433X0.0236*%
%ADD23C,0.04*%
%FSLAX44Y44*%
G04*
G70*
G90*
G75*
G01*
%LNTop*%
%LPD*%
X8523Y18707D2*
D13*
X8961D1*
Y19478D1*
X8484Y19956D1*
X9626Y17394D2*
Y17905D1*
X8268D1*
X8051Y18122D1*
X7834Y17905D1*
X7536D1*
Y19343D1*
X7320Y19559D1*
X6901D1*
X6808D1*
X6591Y19343D1*
Y17894D1*
X6649D1*
X8523Y18707D2*
X8051D1*
Y18122D1*
X6901Y19559D2*
Y21081D1*
X6649Y17894D2*
Y17421D1*
X5693D1*
X5538Y17266D1*
X4649D1*
Y18644D2*
Y19893D1*
X6024Y19956D2*
Y18831D1*
X5961D1*
X4649Y19893D2*
X5259D1*
X5322Y19956D1*
X6024D1*
X9586Y19081D2*
X9836D1*
X10898Y20143D1*
X9586Y18333D2*
X10838D1*
X10898Y18394D1*
X8484Y21206D2*
X7934D1*
Y19081D1*
X8523D1*
X7649Y21081D2*
Y21581D1*
X7774Y21706D1*
X9398D1*
X9461Y21643D1*
Y21331D1*
X9586Y21206D1*
X4649Y21271D2*
X6001D1*
X6024Y21294D1*
Y21727D1*
X7058D1*
X7275Y21511D1*
Y20175D1*
X7910Y17394D2*
X8523D1*
X9038Y18333D2*
X8523D1*
X9586Y18707D2*
X9211D1*
Y19268D1*
X9273Y19331D1*
Y19643D1*
X9586Y19956D1*
Y18707D2*
X10337D1*
X10898Y19268D1*
X11351Y18816D1*
Y16958D1*
X11224Y16831D1*
X7378D1*
X7151Y17059D1*
Y17079D1*
X7064Y17166D1*
Y18831D1*
X7151Y17079D2*
X7060Y16988D1*
X6275D1*
X16960Y18707D2*
X17398D1*
Y19479D1*
X16920Y19956D1*
X18062Y17394D2*
Y17906D1*
X16704D1*
X16488Y18122D1*
X16271Y17906D1*
X15973D1*
Y19343D1*
X15756Y19560D1*
X15337D1*
X15244D1*
X15028Y19343D1*
Y17894D1*
X15085D1*
X16960Y18707D2*
X16488D1*
Y18122D1*
X15337Y19560D2*
Y21081D1*
X15085Y17894D2*
Y17422D1*
X14130D1*
X13974Y17266D1*
X13086D1*
Y18644D2*
Y19894D1*
X14460Y19956D2*
Y18831D1*
X14398D1*
X13086Y19894D2*
X13696D1*
X13758Y19956D1*
X14460D1*
X18023Y19081D2*
X18273D1*
X19335Y20144D1*
X18023Y18333D2*
X19274D1*
X19335Y18394D1*
X16920Y21206D2*
X16371D1*
Y19081D1*
X16960D1*
X16085Y21081D2*
Y21581D1*
X16210Y21706D1*
X17835D1*
X17898Y21644D1*
Y21331D1*
X18023Y21206D1*
X13086Y21271D2*
X14437D1*
X14460Y21295D1*
Y21728D1*
X15495D1*
X15711Y21511D1*
Y20175D1*
X16347Y17394D2*
X16960D1*
X17475Y18333D2*
X16960D1*
X18023Y18707D2*
X17648D1*
Y19269D1*
X17710Y19331D1*
Y19644D1*
X18023Y19956D1*
Y18707D2*
X18773D1*
X19335Y19269D1*
X19788Y18816D1*
Y16959D1*
X19660Y16832D1*
X15815D1*
X15587Y17059D1*
Y17079D1*
X15500Y17167D1*
Y18831D1*
X15587Y17079D2*
X15496Y16988D1*
X14711D1*
X8523Y12395D2*
X8961D1*
Y13167D1*
X8484Y13644D1*
X9626Y11082D2*
Y11594D1*
X8268D1*
X8051Y11810D1*
X7834Y11594D1*
X7536D1*
Y13031D1*
X7320Y13248D1*
X6901D1*
X6808D1*
X6591Y13031D1*
Y11582D1*
X6649D1*
X8523Y12395D2*
X8051D1*
Y11810D1*
X6901Y13248D2*
Y14769D1*
X6649Y11582D2*
Y11109D1*
X5693D1*
X5538Y10954D1*
X4649D1*
Y12332D2*
Y13581D1*
X6024Y13644D2*
Y12519D1*
X5961D1*
X4649Y13581D2*
X5259D1*
X5322Y13644D1*
X6024D1*
X9586Y12769D2*
X9836D1*
X10898Y13832D1*
X9586Y12021D2*
X10838D1*
X10898Y12082D1*
X8484Y14894D2*
X7934D1*
Y12769D1*
X8523D1*
X7649Y14769D2*
Y15269D1*
X7774Y15394D1*
X9398D1*
X9461Y15331D1*
Y15019D1*
X9586Y14894D1*
X4649Y14959D2*
X6001D1*
X6024Y14983D1*
Y15416D1*
X7058D1*
X7275Y15199D1*
Y13863D1*
X7910Y11082D2*
X8523D1*
X9038Y12021D2*
X8523D1*
X9586Y12395D2*
X9211D1*
Y12957D1*
X9273Y13019D1*
Y13331D1*
X9586Y13644D1*
Y12395D2*
X10337D1*
X10898Y12957D1*
X11351Y12504D1*
Y10647D1*
X11224Y10519D1*
X7378D1*
X7151Y10747D1*
Y10767D1*
X7064Y10854D1*
Y12519D1*
X7151Y10767D2*
X7060Y10676D1*
X6275D1*
X16960Y12395D2*
X17398D1*
Y13167D1*
X16920Y13644D1*
X18062Y11082D2*
Y11594D1*
X16704D1*
X16488Y11810D1*
X16271Y11594D1*
X15973D1*
Y13031D1*
X15756Y13248D1*
X15337D1*
X15244D1*
X15028Y13031D1*
Y11582D1*
X15085D1*
X16960Y12395D2*
X16488D1*
Y11810D1*
X15337Y13248D2*
Y14769D1*
X15085Y11582D2*
Y11110D1*
X14130D1*
X13974Y10954D1*
X13086D1*
Y12332D2*
Y13582D1*
X14460Y13644D2*
Y12520D1*
X14398D1*
X13086Y13582D2*
X13696D1*
X13758Y13644D1*
X14460D1*
X18023Y12770D2*
X18273D1*
X19335Y13832D1*
X18023Y12021D2*
X19274D1*
X19335Y12082D1*
X16920Y14894D2*
X16371D1*
Y12770D1*
X16960D1*
X16085Y14769D2*
Y15269D1*
X16210Y15394D1*
X17835D1*
X17898Y15332D1*
Y15019D1*
X18023Y14894D1*
X13086Y14960D2*
X14437D1*
X14460Y14983D1*
Y15416D1*
X15495D1*
X15711Y15199D1*
Y13864D1*
X16347Y11082D2*
X16960D1*
X17475Y12021D2*
X16960D1*
X18023Y12395D2*
X17648D1*
Y12957D1*
X17710Y13019D1*
Y13332D1*
X18023Y13644D1*
Y12395D2*
X18773D1*
X19335Y12957D1*
X19788Y12504D1*
Y10647D1*
X19660Y10520D1*
X15815D1*
X15587Y10747D1*
Y10768D1*
X15500Y10855D1*
Y12520D1*
X15587Y10768D2*
X15496Y10677D1*
X14711D1*
X8523Y6084D2*
X8961D1*
Y6855D1*
X8484Y7332D1*
X9626Y4770D2*
Y5282D1*
X8268D1*
X8051Y5499D1*
X7834Y5282D1*
X7536D1*
Y6719D1*
X7320Y6936D1*
X6901D1*
X6808D1*
X6591Y6719D1*
Y5270D1*
X6649D1*
X8523Y6084D2*
X8051D1*
Y5499D1*
X6901Y6936D2*
Y8457D1*
X6649Y5270D2*
Y4798D1*
X5693D1*
X5538Y4642D1*
X4649D1*
Y6020D2*
Y7270D1*
X6024Y7332D2*
Y6208D1*
X5961D1*
X4649Y7270D2*
X5259D1*
X5322Y7332D1*
X6024D1*
X9586Y6458D2*
X9836D1*
X10898Y7520D1*
X9586Y5710D2*
X10838D1*
X10898Y5770D1*
X8484Y8582D2*
X7934D1*
Y6458D1*
X8523D1*
X7649Y8457D2*
Y8957D1*
X7774Y9082D1*
X9398D1*
X9461Y9020D1*
Y8708D1*
X9586Y8582D1*
X4649Y8648D2*
X6001D1*
X6024Y8671D1*
Y9104D1*
X7058D1*
X7275Y8888D1*
Y7552D1*
X7910Y4770D2*
X8523D1*
X9038Y5710D2*
X8523D1*
X9586Y6084D2*
X9211D1*
Y6645D1*
X9273Y6708D1*
Y7020D1*
X9586Y7332D1*
Y6084D2*
X10337D1*
X10898Y6645D1*
X11351Y6192D1*
Y4335D1*
X11224Y4208D1*
X7378D1*
X7151Y4435D1*
Y4456D1*
X7064Y4543D1*
Y6208D1*
X7151Y4456D2*
X7060Y4365D1*
X6275D1*
X16960Y6084D2*
X17398D1*
Y6855D1*
X16920Y7332D1*
X18062Y4770D2*
Y5282D1*
X16704D1*
X16488Y5499D1*
X16271Y5282D1*
X15973D1*
Y6719D1*
X15756Y6936D1*
X15337D1*
X15244D1*
X15028Y6719D1*
Y5270D1*
X15085D1*
X16960Y6084D2*
X16488D1*
Y5499D1*
X15337Y6936D2*
Y8457D1*
X15085Y5270D2*
Y4798D1*
X14130D1*
X13974Y4642D1*
X13086D1*
Y6020D2*
Y7270D1*
X14460Y7332D2*
Y6208D1*
X14398D1*
X13086Y7270D2*
X13696D1*
X13758Y7332D1*
X14460D1*
X18023Y6458D2*
X18273D1*
X19335Y7520D1*
X18023Y5710D2*
X19274D1*
X19335Y5770D1*
X16920Y8582D2*
X16371D1*
Y6458D1*
X16960D1*
X16085Y8457D2*
Y8957D1*
X16210Y9082D1*
X17835D1*
X17898Y9020D1*
Y8708D1*
X18023Y8582D1*
X13086Y8648D2*
X14437D1*
X14460Y8671D1*
Y9104D1*
X15495D1*
X15711Y8888D1*
Y7552D1*
X16347Y4770D2*
X16960D1*
X17475Y5710D2*
X16960D1*
X18023Y6084D2*
X17648D1*
Y6645D1*
X17710Y6708D1*
Y7020D1*
X18023Y7332D1*
Y6084D2*
X18773D1*
X19335Y6645D1*
X19788Y6192D1*
Y4335D1*
X19660Y4208D1*
X15815D1*
X15587Y4435D1*
Y4456D1*
X15500Y4543D1*
Y6208D1*
X15587Y4456D2*
X15496Y4365D1*
X14711D1*
D23*
X16347Y17394D3*
X17475Y18333D3*
X7910Y11082D3*
X9038Y12021D3*
X16347Y11082D3*
X17475Y12021D3*
X7910Y4770D3*
X9038Y5710D3*
X16347Y4770D3*
X17475Y5710D3*
X7910Y17394D3*
X9038Y18333D3*
D15*
X4649Y18644D3*
Y17266D3*
X13086Y18644D3*
Y17266D3*
X4649Y12332D3*
Y10954D3*
X13086Y12332D3*
Y10954D3*
X4649Y6020D3*
Y4642D3*
X13086Y6020D3*
Y4642D3*
D16*
X9586Y19956D3*
X8484D3*
X8523Y17394D3*
X9626D3*
X18023Y19956D3*
X16920D3*
X16960Y17394D3*
X18062D3*
X9586Y13644D3*
X8484D3*
X8523Y11082D3*
X9626D3*
X18023Y13644D3*
X16920D3*
X16960Y11082D3*
X18062D3*
X9586Y7332D3*
X8484D3*
X8523Y4770D3*
X9626D3*
X18023Y7332D3*
X16920D3*
X16960Y4770D3*
X18062D3*
D18*
X6649Y17894D3*
X5901D3*
X6275Y16988D3*
D20*
X6024Y19956D3*
Y21294D3*
D18*
X15085Y17894D3*
X14337D3*
X14711Y16988D3*
D20*
X14460Y19956D3*
Y21295D3*
D18*
X6649Y11582D3*
X5901D3*
X6275Y10676D3*
D20*
X6024Y13644D3*
Y14983D3*
D18*
X15085Y11582D3*
X14337D3*
X14711Y10677D3*
D20*
X14460Y13644D3*
Y14983D3*
D18*
X6649Y5270D3*
X5901D3*
X6275Y4365D3*
D20*
X6024Y7332D3*
Y8671D3*
D18*
X15085Y5270D3*
X14337D3*
X14711Y4365D3*
D20*
X14460Y7332D3*
Y8671D3*
D15*
X4649Y19893D3*
Y21271D3*
X13086Y19894D3*
Y21271D3*
X4649Y13581D3*
Y14959D3*
X13086Y13582D3*
Y14960D3*
X4649Y7270D3*
Y8648D3*
X13086Y7270D3*
Y8648D3*
D21*
X10898Y18394D3*
Y19268D3*
Y20143D3*
X19335Y18394D3*
Y19269D3*
Y20144D3*
X10898Y12082D3*
Y12957D3*
Y13832D3*
X19335Y12082D3*
Y12957D3*
Y13832D3*
X10898Y5770D3*
Y6645D3*
Y7520D3*
X19335Y5770D3*
Y6645D3*
Y7520D3*
D18*
X7649Y21081D3*
X6901D3*
X7275Y20175D3*
X16085Y21081D3*
X15337D3*
X15711Y20175D3*
X7649Y14769D3*
X6901D3*
X7275Y13863D3*
X16085Y14769D3*
X15337D3*
X15711Y13864D3*
X7649Y8457D3*
X6901D3*
X7275Y7552D3*
X16085Y8457D3*
X15337D3*
X15711Y7552D3*
D16*
X5961Y18831D3*
X7064D3*
X8484Y21206D3*
X9586D3*
X14398Y18831D3*
X15500D3*
X16920Y21206D3*
X18023D3*
X5961Y12519D3*
X7064D3*
X8484Y14894D3*
X9586D3*
X14398Y12520D3*
X15500D3*
X16920Y14894D3*
X18023D3*
X5961Y6208D3*
X7064D3*
X8484Y8582D3*
X9586D3*
X14398Y6208D3*
X15500D3*
X16920Y8582D3*
X18023D3*
D22*
X8523Y19081D3*
Y18707D3*
Y18333D3*
X9586D3*
Y18707D3*
Y19081D3*
X16960D3*
Y18707D3*
Y18333D3*
X18023D3*
Y18707D3*
Y19081D3*
X8523Y12769D3*
Y12395D3*
Y12021D3*
X9586D3*
Y12395D3*
Y12769D3*
X16960Y12770D3*
Y12395D3*
Y12021D3*
X18023D3*
Y12395D3*
Y12770D3*
X8523Y6458D3*
Y6084D3*
Y5710D3*
X9586D3*
Y6084D3*
Y6458D3*
X16960D3*
Y6084D3*
Y5710D3*
X18023D3*
Y6084D3*
Y6458D3*
M02*
