G04 DipTrace 2.4.0.2*
%INTouchSwitch.topsilkscreen.ger*%
%MOIN*%
%ADD10C,0.0098*%
%ADD12C,0.003*%
%ADD17C,0.0154*%
%ADD19C,0.0236*%
%ADD40C,0.0077*%
%ADD41C,0.0046*%
%FSLAX44Y44*%
G04*
G70*
G90*
G75*
G01*
%LNTopSilk*%
%LPD*%
X5200Y19215D2*
D10*
X4098D1*
Y16695D1*
X5200D1*
Y19215D1*
X13637D2*
X12534D1*
Y16695D1*
X13637D1*
Y19215D1*
X5200Y12903D2*
X4098D1*
Y10383D1*
X5200D1*
Y12903D1*
X13637D2*
X12534D1*
Y10383D1*
X13637D1*
Y12903D1*
X5200Y6591D2*
X4098D1*
Y4072D1*
X5200D1*
Y6591D1*
X13637D2*
X12534D1*
Y4072D1*
X13637D1*
Y6591D1*
X9078Y20270D2*
Y19641D1*
X9153Y20270D2*
Y19641D1*
Y20270D2*
X8917D1*
X9153Y19641D2*
X8917D1*
X9031Y17079D2*
Y17708D1*
X8957Y17079D2*
Y17708D1*
Y17079D2*
X9192D1*
X8957Y17708D2*
X9192D1*
X17515Y20271D2*
Y19641D1*
X17589Y20271D2*
Y19641D1*
Y20271D2*
X17354D1*
X17589Y19641D2*
X17354D1*
X17468Y17079D2*
Y17709D1*
X17393Y17079D2*
Y17709D1*
Y17079D2*
X17629D1*
X17393Y17709D2*
X17629D1*
X9078Y13959D2*
Y13329D1*
X9153Y13959D2*
Y13329D1*
Y13959D2*
X8917D1*
X9153Y13329D2*
X8917D1*
X9031Y10767D2*
Y11396D1*
X8957Y10767D2*
Y11396D1*
Y10767D2*
X9192D1*
X8957Y11396D2*
X9192D1*
X17515Y13959D2*
Y13330D1*
X17589Y13959D2*
Y13330D1*
Y13959D2*
X17354D1*
X17589Y13330D2*
X17354D1*
X17468Y10767D2*
Y11397D1*
X17393Y10767D2*
Y11397D1*
Y10767D2*
X17629D1*
X17393Y11397D2*
X17629D1*
X9078Y7647D2*
Y7018D1*
X9153Y7647D2*
Y7018D1*
Y7647D2*
X8917D1*
X9153Y7018D2*
X8917D1*
X9031Y4456D2*
Y5085D1*
X8957Y4456D2*
Y5085D1*
Y4456D2*
X9192D1*
X8957Y5085D2*
X9192D1*
X17515Y7647D2*
Y7018D1*
X17589Y7647D2*
Y7018D1*
Y7647D2*
X17354D1*
X17589Y7018D2*
X17354D1*
X17468Y4456D2*
Y5085D1*
X17393Y4456D2*
Y5085D1*
Y4456D2*
X17629D1*
X17393Y5085D2*
X17629D1*
D17*
X6957Y18041D3*
X6865Y17539D2*
D10*
X5684D1*
Y17342D1*
X6865D1*
Y17539D1*
X5689Y20389D2*
Y20861D1*
X6358Y20389D2*
Y20861D1*
D19*
X6024Y19424D3*
D17*
X15394Y18041D3*
X15302Y17540D2*
D10*
X14121D1*
Y17343D1*
X15302D1*
Y17540D1*
X14126Y20389D2*
Y20862D1*
X14795Y20389D2*
Y20862D1*
D19*
X14460Y19425D3*
D17*
X6957Y11729D3*
X6865Y11227D2*
D10*
X5684D1*
Y11031D1*
X6865D1*
Y11227D1*
X5689Y14077D2*
Y14550D1*
X6358Y14077D2*
Y14550D1*
D19*
X6024Y13112D3*
D17*
X15394Y11729D3*
X15302Y11228D2*
D10*
X14121D1*
Y11031D1*
X15302D1*
Y11228D1*
X14126Y14077D2*
Y14550D1*
X14795Y14077D2*
Y14550D1*
D19*
X14460Y13113D3*
D17*
X6957Y5417D3*
X6865Y4916D2*
D10*
X5684D1*
Y4719D1*
X6865D1*
Y4916D1*
X5689Y7766D2*
Y8238D1*
X6358Y7766D2*
Y8238D1*
D19*
X6024Y6801D3*
D17*
X15394Y5417D3*
X15302Y4916D2*
D10*
X14121D1*
Y4719D1*
X15302D1*
Y4916D1*
X14126Y7766D2*
Y8238D1*
X14795Y7766D2*
Y8238D1*
D19*
X14460Y6801D3*
X4098Y19322D2*
D10*
X5200D1*
Y21842D1*
X4098D1*
Y19322D1*
X12534Y19323D2*
X13637D1*
Y21842D1*
X12534D1*
Y19323D1*
X4098Y13010D2*
X5200D1*
Y15530D1*
X4098D1*
Y13010D1*
X12534Y13011D2*
X13637D1*
Y15531D1*
X12534D1*
Y13011D1*
X4098Y6699D2*
X5200D1*
Y9219D1*
X4098D1*
Y6699D1*
X12534D2*
X13637D1*
Y9219D1*
X12534D1*
Y6699D1*
D17*
X7957Y21228D3*
X7865Y20726D2*
D10*
X6684D1*
Y20529D1*
X7865D1*
Y20726D1*
D17*
X16394Y21228D3*
X16302Y20727D2*
D10*
X15121D1*
Y20530D1*
X16302D1*
Y20727D1*
D17*
X7957Y14916D3*
X7865Y14414D2*
D10*
X6684D1*
Y14218D1*
X7865D1*
Y14414D1*
D17*
X16394Y14916D3*
X16302Y14415D2*
D10*
X15121D1*
Y14218D1*
X16302D1*
Y14415D1*
D17*
X7957Y8604D3*
X7865Y8103D2*
D10*
X6684D1*
Y7906D1*
X7865D1*
Y8103D1*
D17*
X16394Y8604D3*
X16302Y8103D2*
D10*
X15121D1*
Y7906D1*
X16302D1*
Y8103D1*
X6395Y18516D2*
X6630D1*
X6395Y19146D2*
X6630D1*
X8917Y20891D2*
X9153D1*
X8917Y21520D2*
X9153D1*
X14831Y18517D2*
X15067D1*
X14831Y19146D2*
X15067D1*
X17354Y20891D2*
X17589D1*
X17354Y21521D2*
X17589D1*
X6395Y12205D2*
X6630D1*
X6395Y12834D2*
X6630D1*
X8917Y14579D2*
X9153D1*
X8917Y15209D2*
X9153D1*
X14831Y12205D2*
X15067D1*
X14831Y12834D2*
X15067D1*
X17354Y14580D2*
X17589D1*
X17354Y15209D2*
X17589D1*
X6395Y5893D2*
X6630D1*
X6395Y6522D2*
X6630D1*
X8917Y8268D2*
X9153D1*
X8917Y8897D2*
X9153D1*
X14831Y5893D2*
X15067D1*
X14831Y6522D2*
X15067D1*
X17354Y8268D2*
X17589D1*
X17354Y8897D2*
X17589D1*
D17*
X8357Y19350D3*
X8898Y19298D2*
D10*
Y18116D1*
X9213Y19298D2*
Y18116D1*
X8898D2*
X9213D1*
X8898Y19298D2*
X9213D1*
D17*
X16794Y19350D3*
X17334Y19298D2*
D10*
Y18117D1*
X17649Y19298D2*
Y18117D1*
X17334D2*
X17649D1*
X17334Y19298D2*
X17649D1*
D17*
X8357Y13038D3*
X8898Y12986D2*
D10*
Y11805D1*
X9213Y12986D2*
Y11805D1*
X8898D2*
X9213D1*
X8898Y12986D2*
X9213D1*
D17*
X16794Y13039D3*
X17334Y12986D2*
D10*
Y11805D1*
X17649Y12986D2*
Y11805D1*
X17334D2*
X17649D1*
X17334Y12986D2*
X17649D1*
D17*
X8357Y6727D3*
X8898Y6674D2*
D10*
Y5493D1*
X9213Y6674D2*
Y5493D1*
X8898D2*
X9213D1*
X8898Y6674D2*
X9213D1*
D17*
X16794Y6727D3*
X17334Y6674D2*
D10*
Y5493D1*
X17649Y6674D2*
Y5493D1*
X17334D2*
X17649D1*
X17334Y6674D2*
X17649D1*
X10523Y21018D2*
X11273D1*
Y17519D1*
X10523D1*
Y21018D1*
X18960Y21019D2*
X19710D1*
Y17519D1*
X18960D1*
Y21019D1*
X10523Y14706D2*
X11273D1*
Y11207D1*
X10523D1*
Y14706D1*
X18960Y14707D2*
X19710D1*
Y11207D1*
X18960D1*
Y14707D1*
X10523Y8395D2*
X11273D1*
Y4895D1*
X10523D1*
Y8395D1*
X18960D2*
X19710D1*
Y4895D1*
X18960D1*
Y8395D1*
X10636Y21212D2*
D40*
X11138D1*
Y21428D1*
X11114Y21500D1*
X11090Y21523D1*
X11042Y21547D1*
X10970D1*
X10922Y21523D1*
X10899Y21500D1*
X10875Y21428D1*
X10851Y21500D1*
X10827Y21523D1*
X10779Y21547D1*
X10731D1*
X10684Y21523D1*
X10659Y21500D1*
X10636Y21428D1*
Y21212D1*
X10875D2*
Y21428D1*
X11099Y17384D2*
X10597Y17192D1*
X11099Y17001D1*
X10932Y17073D2*
Y17312D1*
X5477Y17076D2*
D12*
Y16875D1*
X5563D1*
X5592Y16885D1*
X5601Y16894D1*
X5611Y16913D1*
Y16942D1*
X5601Y16961D1*
X5592Y16971D1*
X5563Y16980D1*
X5592Y16990D1*
X5601Y16999D1*
X5611Y17018D1*
Y17038D1*
X5601Y17057D1*
X5592Y17066D1*
X5563Y17076D1*
X5477D1*
Y16980D2*
X5563D1*
X5673Y17076D2*
X5806D1*
X5673Y16875D1*
X5806D1*
X5868Y17076D2*
X6002Y16875D1*
Y17076D2*
X5868Y16875D1*
X7597Y20263D2*
X7578Y20254D1*
X7558Y20234D1*
X7549Y20215D1*
X7539Y20187D1*
Y20139D1*
X7549Y20110D1*
X7558Y20091D1*
X7578Y20072D1*
X7597Y20062D1*
X7635D1*
X7654Y20072D1*
X7673Y20091D1*
X7683Y20110D1*
X7692Y20139D1*
Y20187D1*
X7683Y20215D1*
X7673Y20234D1*
X7654Y20254D1*
X7635Y20263D1*
X7597D1*
X7625Y20101D2*
X7683Y20043D1*
X7754Y20225D2*
X7773Y20234D1*
X7802Y20263D1*
Y20062D1*
X9976Y21230D2*
X10062D1*
X10091Y21239D1*
X10101Y21249D1*
X10110Y21268D1*
Y21287D1*
X10101Y21306D1*
X10091Y21316D1*
X10062Y21325D1*
X9976D1*
Y21124D1*
X10043Y21230D2*
X10110Y21124D1*
X10182Y21277D2*
Y21287D1*
X10191Y21306D1*
X10201Y21316D1*
X10220Y21325D1*
X10258D1*
X10277Y21316D1*
X10287Y21306D1*
X10297Y21287D1*
Y21268D1*
X10287Y21249D1*
X10268Y21220D1*
X10172Y21124D1*
X10306D1*
X7539Y18792D2*
X7625D1*
X7654Y18802D1*
X7664Y18812D1*
X7673Y18831D1*
Y18850D1*
X7664Y18869D1*
X7654Y18879D1*
X7625Y18888D1*
X7539D1*
Y18687D1*
X7606Y18792D2*
X7673Y18687D1*
X7735Y18850D2*
X7754Y18859D1*
X7783Y18888D1*
Y18687D1*
X10182Y17341D2*
X10173Y17360D1*
X10154Y17379D1*
X10135Y17388D1*
X10096D1*
X10077Y17379D1*
X10058Y17360D1*
X10048Y17341D1*
X10039Y17312D1*
Y17264D1*
X10048Y17235D1*
X10058Y17216D1*
X10077Y17197D1*
X10096Y17187D1*
X10135D1*
X10154Y17197D1*
X10173Y17216D1*
X10182Y17235D1*
X10254Y17340D2*
Y17350D1*
X10263Y17369D1*
X10273Y17379D1*
X10292Y17388D1*
X10330D1*
X10349Y17379D1*
X10359Y17369D1*
X10369Y17350D1*
Y17331D1*
X10359Y17312D1*
X10340Y17283D1*
X10244Y17187D1*
X10378D1*
X10120Y20090D2*
X10110Y20109D1*
X10091Y20129D1*
X10072Y20138D1*
X10034D1*
X10015Y20129D1*
X9996Y20109D1*
X9986Y20090D1*
X9976Y20062D1*
Y20014D1*
X9986Y19985D1*
X9996Y19966D1*
X10015Y19947D1*
X10034Y19937D1*
X10072D1*
X10091Y19947D1*
X10110Y19966D1*
X10120Y19985D1*
X10182Y20100D2*
X10201Y20109D1*
X10230Y20138D1*
Y19937D1*
X6414Y20076D2*
Y19875D1*
X6481D1*
X6510Y19884D1*
X6529Y19903D1*
X6539Y19923D1*
X6548Y19951D1*
Y19999D1*
X6539Y20028D1*
X6529Y20047D1*
X6510Y20066D1*
X6481Y20076D1*
X6414D1*
X6610Y20037D2*
X6629Y20047D1*
X6658Y20075D1*
Y19875D1*
X4416Y18036D2*
X4435Y18046D1*
X4464Y18074D1*
Y17873D1*
X4535Y18026D2*
Y18036D1*
X4545Y18055D1*
X4554Y18065D1*
X4574Y18074D1*
X4612D1*
X4631Y18065D1*
X4640Y18055D1*
X4650Y18036D1*
Y18017D1*
X4640Y17998D1*
X4621Y17969D1*
X4526Y17873D1*
X4660D1*
X4721Y18074D2*
X4798Y17873D1*
X4874Y18074D1*
X4473Y20699D2*
X4454Y20689D1*
X4435Y20670D1*
X4425Y20651D1*
X4416Y20622D1*
Y20575D1*
X4425Y20546D1*
X4435Y20527D1*
X4454Y20508D1*
X4473Y20498D1*
X4512D1*
X4531Y20508D1*
X4550Y20527D1*
X4559Y20546D1*
X4569Y20575D1*
Y20622D1*
X4559Y20651D1*
X4550Y20670D1*
X4531Y20689D1*
X4512Y20699D1*
X4473D1*
X4631Y20632D2*
Y20536D1*
X4640Y20508D1*
X4659Y20498D1*
X4688D1*
X4707Y20508D1*
X4736Y20536D1*
Y20632D2*
Y20498D1*
X4826Y20699D2*
Y20536D1*
X4836Y20508D1*
X4855Y20498D1*
X4874D1*
X4798Y20632D2*
X4865D1*
X5298Y17515D2*
D41*
X5464D1*
X5427Y18831D2*
Y18573D1*
X5298Y18702D2*
X5557D1*
X5361Y21577D2*
X5527D1*
X5427Y19831D2*
Y19573D1*
X5298Y19702D2*
X5557D1*
X19072Y21213D2*
D40*
X19575D1*
Y21428D1*
X19550Y21500D1*
X19526Y21524D1*
X19479Y21548D1*
X19407D1*
X19359Y21524D1*
X19335Y21500D1*
X19311Y21428D1*
X19287Y21500D1*
X19263Y21524D1*
X19216Y21548D1*
X19168D1*
X19120Y21524D1*
X19096Y21500D1*
X19072Y21428D1*
Y21213D1*
X19311D2*
Y21428D1*
X19536Y17385D2*
X19034Y17193D1*
X19536Y17002D1*
X19369Y17073D2*
Y17313D1*
X13913Y17076D2*
D12*
Y16875D1*
X14000D1*
X14028Y16885D1*
X14038Y16894D1*
X14047Y16913D1*
Y16942D1*
X14038Y16961D1*
X14028Y16971D1*
X14000Y16980D1*
X14028Y16990D1*
X14038Y17000D1*
X14047Y17019D1*
Y17038D1*
X14038Y17057D1*
X14028Y17067D1*
X14000Y17076D1*
X13913D1*
Y16980D2*
X14000D1*
X14109Y17076D2*
X14243D1*
X14109Y16875D1*
X14243D1*
X14305Y17076D2*
X14439Y16875D1*
Y17076D2*
X14305Y16875D1*
X16033Y20263D2*
X16014Y20254D1*
X15995Y20235D1*
X15985Y20216D1*
X15976Y20187D1*
Y20139D1*
X15985Y20110D1*
X15995Y20091D1*
X16014Y20072D1*
X16033Y20063D1*
X16071D1*
X16091Y20072D1*
X16110Y20091D1*
X16119Y20110D1*
X16129Y20139D1*
Y20187D1*
X16119Y20216D1*
X16110Y20235D1*
X16091Y20254D1*
X16071Y20263D1*
X16033D1*
X16062Y20101D2*
X16119Y20043D1*
X16191Y20225D2*
X16210Y20235D1*
X16239Y20263D1*
Y20062D1*
X18413Y21230D2*
X18499D1*
X18528Y21240D1*
X18537Y21249D1*
X18547Y21268D1*
Y21287D1*
X18537Y21307D1*
X18528Y21316D1*
X18499Y21326D1*
X18413D1*
Y21125D1*
X18480Y21230D2*
X18547Y21125D1*
X18618Y21278D2*
Y21287D1*
X18628Y21307D1*
X18637Y21316D1*
X18657Y21326D1*
X18695D1*
X18714Y21316D1*
X18723Y21307D1*
X18733Y21287D1*
Y21268D1*
X18723Y21249D1*
X18704Y21221D1*
X18609Y21125D1*
X18743D1*
X15976Y18793D2*
X16062D1*
X16090Y18802D1*
X16100Y18812D1*
X16110Y18831D1*
Y18850D1*
X16100Y18869D1*
X16090Y18879D1*
X16062Y18888D1*
X15976D1*
Y18688D1*
X16043Y18793D2*
X16110Y18688D1*
X16171Y18850D2*
X16191Y18860D1*
X16219Y18888D1*
Y18688D1*
X18619Y17341D2*
X18609Y17360D1*
X18590Y17379D1*
X18571Y17389D1*
X18533D1*
X18514Y17379D1*
X18495Y17360D1*
X18485Y17341D1*
X18475Y17312D1*
Y17264D1*
X18485Y17236D1*
X18495Y17216D1*
X18514Y17197D1*
X18533Y17188D1*
X18571D1*
X18590Y17197D1*
X18609Y17216D1*
X18619Y17236D1*
X18690Y17341D2*
Y17350D1*
X18700Y17369D1*
X18709Y17379D1*
X18729Y17388D1*
X18767D1*
X18786Y17379D1*
X18795Y17369D1*
X18805Y17350D1*
Y17331D1*
X18795Y17312D1*
X18776Y17283D1*
X18681Y17188D1*
X18815D1*
X18556Y20091D2*
X18547Y20110D1*
X18528Y20129D1*
X18509Y20138D1*
X18470D1*
X18451Y20129D1*
X18432Y20110D1*
X18422Y20091D1*
X18413Y20062D1*
Y20014D1*
X18422Y19985D1*
X18432Y19966D1*
X18451Y19947D1*
X18470Y19937D1*
X18509D1*
X18528Y19947D1*
X18547Y19966D1*
X18556Y19985D1*
X18618Y20100D2*
X18637Y20110D1*
X18666Y20138D1*
Y19937D1*
X14851Y20076D2*
Y19875D1*
X14918D1*
X14947Y19885D1*
X14966Y19904D1*
X14975Y19923D1*
X14985Y19951D1*
Y19999D1*
X14975Y20028D1*
X14966Y20047D1*
X14947Y20066D1*
X14918Y20076D1*
X14851D1*
X15047Y20037D2*
X15066Y20047D1*
X15094Y20076D1*
Y19875D1*
X12852Y18036D2*
X12872Y18046D1*
X12900Y18074D1*
Y17874D1*
X12972Y18027D2*
Y18036D1*
X12981Y18055D1*
X12991Y18065D1*
X13010Y18074D1*
X13048D1*
X13067Y18065D1*
X13077Y18055D1*
X13087Y18036D1*
Y18017D1*
X13077Y17998D1*
X13058Y17969D1*
X12962Y17874D1*
X13096D1*
X13158Y18075D2*
X13234Y17874D1*
X13311Y18075D1*
X12910Y20699D2*
X12891Y20690D1*
X12872Y20671D1*
X12862Y20652D1*
X12852Y20623D1*
Y20575D1*
X12862Y20546D1*
X12872Y20527D1*
X12891Y20508D1*
X12910Y20498D1*
X12948D1*
X12967Y20508D1*
X12986Y20527D1*
X12996Y20546D1*
X13005Y20575D1*
Y20623D1*
X12996Y20652D1*
X12986Y20671D1*
X12967Y20690D1*
X12948Y20699D1*
X12910D1*
X13067Y20632D2*
Y20537D1*
X13077Y20508D1*
X13096Y20498D1*
X13125D1*
X13144Y20508D1*
X13172Y20537D1*
Y20632D2*
Y20498D1*
X13263Y20699D2*
Y20537D1*
X13272Y20508D1*
X13292Y20498D1*
X13311D1*
X13234Y20632D2*
X13301D1*
X13735Y17515D2*
D41*
X13901D1*
X13864Y18831D2*
Y18573D1*
X13735Y18702D2*
X13993D1*
X13798Y21577D2*
X13963D1*
X13864Y19831D2*
Y19573D1*
X13735Y19702D2*
X13993D1*
X10636Y14900D2*
D40*
X11138D1*
Y15116D1*
X11114Y15188D1*
X11090Y15212D1*
X11042Y15235D1*
X10970D1*
X10922Y15212D1*
X10899Y15188D1*
X10875Y15116D1*
X10851Y15188D1*
X10827Y15212D1*
X10779Y15235D1*
X10731D1*
X10684Y15212D1*
X10659Y15188D1*
X10636Y15116D1*
Y14900D1*
X10875D2*
Y15116D1*
X11099Y11072D2*
X10597Y10881D1*
X11099Y10689D1*
X10932Y10761D2*
Y11001D1*
X5477Y10764D2*
D12*
Y10563D1*
X5563D1*
X5592Y10573D1*
X5601Y10582D1*
X5611Y10601D1*
Y10630D1*
X5601Y10649D1*
X5592Y10659D1*
X5563Y10668D1*
X5592Y10678D1*
X5601Y10688D1*
X5611Y10707D1*
Y10726D1*
X5601Y10745D1*
X5592Y10754D1*
X5563Y10764D1*
X5477D1*
Y10668D2*
X5563D1*
X5673Y10764D2*
X5806D1*
X5673Y10563D1*
X5806D1*
X5868Y10764D2*
X6002Y10563D1*
Y10764D2*
X5868Y10563D1*
X7597Y13951D2*
X7578Y13942D1*
X7558Y13923D1*
X7549Y13903D1*
X7539Y13875D1*
Y13827D1*
X7549Y13798D1*
X7558Y13779D1*
X7578Y13760D1*
X7597Y13750D1*
X7635D1*
X7654Y13760D1*
X7673Y13779D1*
X7683Y13798D1*
X7692Y13827D1*
Y13875D1*
X7683Y13903D1*
X7673Y13923D1*
X7654Y13942D1*
X7635Y13951D1*
X7597D1*
X7625Y13789D2*
X7683Y13731D1*
X7754Y13913D2*
X7773Y13922D1*
X7802Y13951D1*
Y13750D1*
X9976Y14918D2*
X10062D1*
X10091Y14928D1*
X10101Y14937D1*
X10110Y14956D1*
Y14975D1*
X10101Y14994D1*
X10091Y15004D1*
X10062Y15014D1*
X9976D1*
Y14813D1*
X10043Y14918D2*
X10110Y14813D1*
X10182Y14966D2*
Y14975D1*
X10191Y14994D1*
X10201Y15004D1*
X10220Y15013D1*
X10258D1*
X10277Y15004D1*
X10287Y14994D1*
X10297Y14975D1*
Y14956D1*
X10287Y14937D1*
X10268Y14908D1*
X10172Y14813D1*
X10306D1*
X7539Y12481D2*
X7625D1*
X7654Y12490D1*
X7664Y12500D1*
X7673Y12519D1*
Y12538D1*
X7664Y12557D1*
X7654Y12567D1*
X7625Y12576D1*
X7539D1*
Y12375D1*
X7606Y12481D2*
X7673Y12375D1*
X7735Y12538D2*
X7754Y12548D1*
X7783Y12576D1*
Y12375D1*
X10182Y11029D2*
X10173Y11048D1*
X10154Y11067D1*
X10135Y11076D1*
X10096D1*
X10077Y11067D1*
X10058Y11048D1*
X10048Y11029D1*
X10039Y11000D1*
Y10952D1*
X10048Y10923D1*
X10058Y10904D1*
X10077Y10885D1*
X10096Y10876D1*
X10135D1*
X10154Y10885D1*
X10173Y10904D1*
X10182Y10923D1*
X10254Y11028D2*
Y11038D1*
X10263Y11057D1*
X10273Y11067D1*
X10292Y11076D1*
X10330D1*
X10349Y11067D1*
X10359Y11057D1*
X10369Y11038D1*
Y11019D1*
X10359Y11000D1*
X10340Y10971D1*
X10244Y10876D1*
X10378D1*
X10120Y13778D2*
X10110Y13797D1*
X10091Y13817D1*
X10072Y13826D1*
X10034D1*
X10015Y13817D1*
X9996Y13797D1*
X9986Y13778D1*
X9976Y13750D1*
Y13702D1*
X9986Y13673D1*
X9996Y13654D1*
X10015Y13635D1*
X10034Y13625D1*
X10072D1*
X10091Y13635D1*
X10110Y13654D1*
X10120Y13673D1*
X10182Y13788D2*
X10201Y13797D1*
X10230Y13826D1*
Y13625D1*
X6414Y13764D2*
Y13563D1*
X6481D1*
X6510Y13572D1*
X6529Y13591D1*
X6539Y13611D1*
X6548Y13639D1*
Y13687D1*
X6539Y13716D1*
X6529Y13735D1*
X6510Y13754D1*
X6481Y13764D1*
X6414D1*
X6610Y13725D2*
X6629Y13735D1*
X6658Y13763D1*
Y13563D1*
X4416Y11724D2*
X4435Y11734D1*
X4464Y11762D1*
Y11561D1*
X4535Y11714D2*
Y11724D1*
X4545Y11743D1*
X4554Y11753D1*
X4574Y11762D1*
X4612D1*
X4631Y11753D1*
X4640Y11743D1*
X4650Y11724D1*
Y11705D1*
X4640Y11686D1*
X4621Y11657D1*
X4526Y11561D1*
X4660D1*
X4721Y11762D2*
X4798Y11561D1*
X4874Y11762D1*
X4473Y14387D2*
X4454Y14378D1*
X4435Y14358D1*
X4425Y14339D1*
X4416Y14311D1*
Y14263D1*
X4425Y14234D1*
X4435Y14215D1*
X4454Y14196D1*
X4473Y14186D1*
X4512D1*
X4531Y14196D1*
X4550Y14215D1*
X4559Y14234D1*
X4569Y14263D1*
Y14311D1*
X4559Y14339D1*
X4550Y14358D1*
X4531Y14378D1*
X4512Y14387D1*
X4473D1*
X4631Y14320D2*
Y14224D1*
X4640Y14196D1*
X4659Y14186D1*
X4688D1*
X4707Y14196D1*
X4736Y14224D1*
Y14320D2*
Y14186D1*
X4826Y14387D2*
Y14224D1*
X4836Y14196D1*
X4855Y14186D1*
X4874D1*
X4798Y14320D2*
X4865D1*
X5298Y11203D2*
D41*
X5464D1*
X5427Y12519D2*
Y12261D1*
X5298Y12390D2*
X5557D1*
X5361Y15265D2*
X5527D1*
X5427Y13519D2*
Y13261D1*
X5298Y13390D2*
X5557D1*
X19072Y14901D2*
D40*
X19575D1*
Y15116D1*
X19550Y15188D1*
X19526Y15212D1*
X19479Y15236D1*
X19407D1*
X19359Y15212D1*
X19335Y15188D1*
X19311Y15116D1*
X19287Y15188D1*
X19263Y15212D1*
X19216Y15236D1*
X19168D1*
X19120Y15212D1*
X19096Y15188D1*
X19072Y15116D1*
Y14901D1*
X19311D2*
Y15116D1*
X19536Y11073D2*
X19034Y10881D1*
X19536Y10690D1*
X19369Y10762D2*
Y11001D1*
X13913Y10764D2*
D12*
Y10563D1*
X14000D1*
X14028Y10573D1*
X14038Y10583D1*
X14047Y10602D1*
Y10630D1*
X14038Y10650D1*
X14028Y10659D1*
X14000Y10669D1*
X14028Y10678D1*
X14038Y10688D1*
X14047Y10707D1*
Y10726D1*
X14038Y10745D1*
X14028Y10755D1*
X14000Y10764D1*
X13913D1*
Y10669D2*
X14000D1*
X14109Y10764D2*
X14243D1*
X14109Y10563D1*
X14243D1*
X14305Y10764D2*
X14439Y10563D1*
Y10764D2*
X14305Y10563D1*
X16033Y13952D2*
X16014Y13942D1*
X15995Y13923D1*
X15985Y13904D1*
X15976Y13875D1*
Y13827D1*
X15985Y13799D1*
X15995Y13780D1*
X16014Y13760D1*
X16033Y13751D1*
X16071D1*
X16091Y13760D1*
X16110Y13780D1*
X16119Y13799D1*
X16129Y13827D1*
Y13875D1*
X16119Y13904D1*
X16110Y13923D1*
X16091Y13942D1*
X16071Y13952D1*
X16033D1*
X16062Y13789D2*
X16119Y13732D1*
X16191Y13913D2*
X16210Y13923D1*
X16239Y13951D1*
Y13751D1*
X18413Y14918D2*
X18499D1*
X18528Y14928D1*
X18537Y14937D1*
X18547Y14956D1*
Y14976D1*
X18537Y14995D1*
X18528Y15004D1*
X18499Y15014D1*
X18413D1*
Y14813D1*
X18480Y14918D2*
X18547Y14813D1*
X18618Y14966D2*
Y14975D1*
X18628Y14995D1*
X18637Y15004D1*
X18657Y15014D1*
X18695D1*
X18714Y15004D1*
X18723Y14995D1*
X18733Y14975D1*
Y14956D1*
X18723Y14937D1*
X18704Y14909D1*
X18609Y14813D1*
X18743D1*
X15976Y12481D2*
X16062D1*
X16090Y12491D1*
X16100Y12500D1*
X16110Y12519D1*
Y12538D1*
X16100Y12557D1*
X16090Y12567D1*
X16062Y12577D1*
X15976D1*
Y12376D1*
X16043Y12481D2*
X16110Y12376D1*
X16171Y12538D2*
X16191Y12548D1*
X16219Y12576D1*
Y12376D1*
X18619Y11029D2*
X18609Y11048D1*
X18590Y11067D1*
X18571Y11077D1*
X18533D1*
X18514Y11067D1*
X18495Y11048D1*
X18485Y11029D1*
X18475Y11000D1*
Y10952D1*
X18485Y10924D1*
X18495Y10905D1*
X18514Y10886D1*
X18533Y10876D1*
X18571D1*
X18590Y10886D1*
X18609Y10905D1*
X18619Y10924D1*
X18690Y11029D2*
Y11038D1*
X18700Y11058D1*
X18709Y11067D1*
X18729Y11077D1*
X18767D1*
X18786Y11067D1*
X18795Y11058D1*
X18805Y11038D1*
Y11019D1*
X18795Y11000D1*
X18776Y10972D1*
X18681Y10876D1*
X18815D1*
X18556Y13779D2*
X18547Y13798D1*
X18528Y13817D1*
X18509Y13827D1*
X18470D1*
X18451Y13817D1*
X18432Y13798D1*
X18422Y13779D1*
X18413Y13750D1*
Y13702D1*
X18422Y13674D1*
X18432Y13654D1*
X18451Y13635D1*
X18470Y13626D1*
X18509D1*
X18528Y13635D1*
X18547Y13654D1*
X18556Y13674D1*
X18618Y13788D2*
X18637Y13798D1*
X18666Y13826D1*
Y13626D1*
X14851Y13764D2*
Y13563D1*
X14918D1*
X14947Y13573D1*
X14966Y13592D1*
X14975Y13611D1*
X14985Y13640D1*
Y13688D1*
X14975Y13716D1*
X14966Y13735D1*
X14947Y13755D1*
X14918Y13764D1*
X14851D1*
X15047Y13726D2*
X15066Y13735D1*
X15094Y13764D1*
Y13563D1*
X12852Y11724D2*
X12872Y11734D1*
X12900Y11763D1*
Y11562D1*
X12972Y11715D2*
Y11724D1*
X12981Y11744D1*
X12991Y11753D1*
X13010Y11763D1*
X13048D1*
X13067Y11753D1*
X13077Y11744D1*
X13087Y11724D1*
Y11705D1*
X13077Y11686D1*
X13058Y11658D1*
X12962Y11562D1*
X13096D1*
X13158Y11763D2*
X13234Y11562D1*
X13311Y11763D1*
X12910Y14387D2*
X12891Y14378D1*
X12872Y14359D1*
X12862Y14340D1*
X12852Y14311D1*
Y14263D1*
X12862Y14235D1*
X12872Y14215D1*
X12891Y14196D1*
X12910Y14187D1*
X12948D1*
X12967Y14196D1*
X12986Y14215D1*
X12996Y14235D1*
X13005Y14263D1*
Y14311D1*
X12996Y14340D1*
X12986Y14359D1*
X12967Y14378D1*
X12948Y14387D1*
X12910D1*
X13067Y14321D2*
Y14225D1*
X13077Y14196D1*
X13096Y14187D1*
X13125D1*
X13144Y14196D1*
X13172Y14225D1*
Y14321D2*
Y14187D1*
X13263Y14387D2*
Y14225D1*
X13272Y14196D1*
X13292Y14187D1*
X13311D1*
X13234Y14321D2*
X13301D1*
X13735Y11203D2*
D41*
X13901D1*
X13864Y12520D2*
Y12261D1*
X13735Y12390D2*
X13993D1*
X13798Y15265D2*
X13963D1*
X13864Y13519D2*
Y13261D1*
X13735Y13390D2*
X13993D1*
X10636Y8589D2*
D40*
X11138D1*
Y8805D1*
X11114Y8876D1*
X11090Y8900D1*
X11042Y8924D1*
X10970D1*
X10922Y8900D1*
X10899Y8876D1*
X10875Y8805D1*
X10851Y8876D1*
X10827Y8900D1*
X10779Y8924D1*
X10731D1*
X10684Y8900D1*
X10659Y8876D1*
X10636Y8805D1*
Y8589D1*
X10875D2*
Y8805D1*
X11099Y4761D2*
X10597Y4569D1*
X11099Y4378D1*
X10932Y4450D2*
Y4689D1*
X5477Y4453D2*
D12*
Y4252D1*
X5563D1*
X5592Y4261D1*
X5601Y4271D1*
X5611Y4290D1*
Y4319D1*
X5601Y4338D1*
X5592Y4347D1*
X5563Y4357D1*
X5592Y4367D1*
X5601Y4376D1*
X5611Y4395D1*
Y4414D1*
X5601Y4433D1*
X5592Y4443D1*
X5563Y4453D1*
X5477D1*
Y4357D2*
X5563D1*
X5673Y4453D2*
X5806D1*
X5673Y4252D1*
X5806D1*
X5868Y4453D2*
X6002Y4252D1*
Y4453D2*
X5868Y4252D1*
X7597Y7640D2*
X7578Y7630D1*
X7558Y7611D1*
X7549Y7592D1*
X7539Y7563D1*
Y7515D1*
X7549Y7487D1*
X7558Y7468D1*
X7578Y7448D1*
X7597Y7439D1*
X7635D1*
X7654Y7448D1*
X7673Y7468D1*
X7683Y7487D1*
X7692Y7515D1*
Y7563D1*
X7683Y7592D1*
X7673Y7611D1*
X7654Y7630D1*
X7635Y7640D1*
X7597D1*
X7625Y7477D2*
X7683Y7420D1*
X7754Y7601D2*
X7773Y7611D1*
X7802Y7639D1*
Y7439D1*
X9976Y8606D2*
X10062D1*
X10091Y8616D1*
X10101Y8626D1*
X10110Y8645D1*
Y8664D1*
X10101Y8683D1*
X10091Y8693D1*
X10062Y8702D1*
X9976D1*
Y8501D1*
X10043Y8606D2*
X10110Y8501D1*
X10182Y8654D2*
Y8664D1*
X10191Y8683D1*
X10201Y8692D1*
X10220Y8702D1*
X10258D1*
X10277Y8692D1*
X10287Y8683D1*
X10297Y8664D1*
Y8645D1*
X10287Y8625D1*
X10268Y8597D1*
X10172Y8501D1*
X10306D1*
X7539Y6169D2*
X7625D1*
X7654Y6179D1*
X7664Y6188D1*
X7673Y6207D1*
Y6227D1*
X7664Y6246D1*
X7654Y6255D1*
X7625Y6265D1*
X7539D1*
Y6064D1*
X7606Y6169D2*
X7673Y6064D1*
X7735Y6226D2*
X7754Y6236D1*
X7783Y6265D1*
Y6064D1*
X10182Y4717D2*
X10173Y4736D1*
X10154Y4755D1*
X10135Y4765D1*
X10096D1*
X10077Y4755D1*
X10058Y4736D1*
X10048Y4717D1*
X10039Y4688D1*
Y4641D1*
X10048Y4612D1*
X10058Y4593D1*
X10077Y4574D1*
X10096Y4564D1*
X10135D1*
X10154Y4574D1*
X10173Y4593D1*
X10182Y4612D1*
X10254Y4717D2*
Y4727D1*
X10263Y4746D1*
X10273Y4755D1*
X10292Y4765D1*
X10330D1*
X10349Y4755D1*
X10359Y4746D1*
X10369Y4727D1*
Y4707D1*
X10359Y4688D1*
X10340Y4660D1*
X10244Y4564D1*
X10378D1*
X10120Y7467D2*
X10110Y7486D1*
X10091Y7505D1*
X10072Y7515D1*
X10034D1*
X10015Y7505D1*
X9996Y7486D1*
X9986Y7467D1*
X9976Y7438D1*
Y7390D1*
X9986Y7362D1*
X9996Y7342D1*
X10015Y7323D1*
X10034Y7314D1*
X10072D1*
X10091Y7323D1*
X10110Y7342D1*
X10120Y7362D1*
X10182Y7476D2*
X10201Y7486D1*
X10230Y7514D1*
Y7314D1*
X6414Y7452D2*
Y7251D1*
X6481D1*
X6510Y7261D1*
X6529Y7280D1*
X6539Y7299D1*
X6548Y7328D1*
Y7376D1*
X6539Y7404D1*
X6529Y7423D1*
X6510Y7443D1*
X6481Y7452D1*
X6414D1*
X6610Y7414D2*
X6629Y7423D1*
X6658Y7452D1*
Y7251D1*
X4416Y5412D2*
X4435Y5422D1*
X4464Y5451D1*
Y5250D1*
X4535Y5403D2*
Y5412D1*
X4545Y5432D1*
X4554Y5441D1*
X4574Y5451D1*
X4612D1*
X4631Y5441D1*
X4640Y5432D1*
X4650Y5412D1*
Y5393D1*
X4640Y5374D1*
X4621Y5346D1*
X4526Y5250D1*
X4660D1*
X4721Y5451D2*
X4798Y5250D1*
X4874Y5451D1*
X4473Y8076D2*
X4454Y8066D1*
X4435Y8047D1*
X4425Y8028D1*
X4416Y7999D1*
Y7951D1*
X4425Y7923D1*
X4435Y7903D1*
X4454Y7884D1*
X4473Y7875D1*
X4512D1*
X4531Y7884D1*
X4550Y7903D1*
X4559Y7923D1*
X4569Y7951D1*
Y7999D1*
X4559Y8028D1*
X4550Y8047D1*
X4531Y8066D1*
X4512Y8076D1*
X4473D1*
X4631Y8009D2*
Y7913D1*
X4640Y7884D1*
X4659Y7875D1*
X4688D1*
X4707Y7884D1*
X4736Y7913D1*
Y8009D2*
Y7875D1*
X4826Y8076D2*
Y7913D1*
X4836Y7884D1*
X4855Y7875D1*
X4874D1*
X4798Y8009D2*
X4865D1*
X5298Y4891D2*
D41*
X5464D1*
X5427Y6208D2*
Y5949D1*
X5298Y6078D2*
X5557D1*
X5361Y8953D2*
X5527D1*
X5427Y7208D2*
Y6949D1*
X5298Y7078D2*
X5557D1*
X19072Y8589D2*
D40*
X19575D1*
Y8805D1*
X19550Y8876D1*
X19526Y8900D1*
X19479Y8924D1*
X19407D1*
X19359Y8900D1*
X19335Y8876D1*
X19311Y8805D1*
X19287Y8876D1*
X19263Y8900D1*
X19216Y8924D1*
X19168D1*
X19120Y8900D1*
X19096Y8876D1*
X19072Y8805D1*
Y8589D1*
X19311D2*
Y8805D1*
X19536Y4761D2*
X19034Y4569D1*
X19536Y4378D1*
X19369Y4450D2*
Y4689D1*
X13913Y4453D2*
D12*
Y4252D1*
X14000D1*
X14028Y4261D1*
X14038Y4271D1*
X14047Y4290D1*
Y4319D1*
X14038Y4338D1*
X14028Y4347D1*
X14000Y4357D1*
X14028Y4367D1*
X14038Y4376D1*
X14047Y4395D1*
Y4414D1*
X14038Y4433D1*
X14028Y4443D1*
X14000Y4453D1*
X13913D1*
Y4357D2*
X14000D1*
X14109Y4453D2*
X14243D1*
X14109Y4252D1*
X14243D1*
X14305Y4453D2*
X14439Y4252D1*
Y4453D2*
X14305Y4252D1*
X16033Y7640D2*
X16014Y7630D1*
X15995Y7611D1*
X15985Y7592D1*
X15976Y7563D1*
Y7515D1*
X15985Y7487D1*
X15995Y7468D1*
X16014Y7448D1*
X16033Y7439D1*
X16071D1*
X16091Y7448D1*
X16110Y7468D1*
X16119Y7487D1*
X16129Y7515D1*
Y7563D1*
X16119Y7592D1*
X16110Y7611D1*
X16091Y7630D1*
X16071Y7640D1*
X16033D1*
X16062Y7477D2*
X16119Y7420D1*
X16191Y7601D2*
X16210Y7611D1*
X16239Y7639D1*
Y7439D1*
X18413Y8606D2*
X18499D1*
X18528Y8616D1*
X18537Y8626D1*
X18547Y8645D1*
Y8664D1*
X18537Y8683D1*
X18528Y8693D1*
X18499Y8702D1*
X18413D1*
Y8501D1*
X18480Y8606D2*
X18547Y8501D1*
X18618Y8654D2*
Y8664D1*
X18628Y8683D1*
X18637Y8692D1*
X18657Y8702D1*
X18695D1*
X18714Y8692D1*
X18723Y8683D1*
X18733Y8664D1*
Y8645D1*
X18723Y8625D1*
X18704Y8597D1*
X18609Y8501D1*
X18743D1*
X15976Y6169D2*
X16062D1*
X16090Y6179D1*
X16100Y6188D1*
X16110Y6207D1*
Y6227D1*
X16100Y6246D1*
X16090Y6255D1*
X16062Y6265D1*
X15976D1*
Y6064D1*
X16043Y6169D2*
X16110Y6064D1*
X16171Y6226D2*
X16191Y6236D1*
X16219Y6265D1*
Y6064D1*
X18619Y4717D2*
X18609Y4736D1*
X18590Y4755D1*
X18571Y4765D1*
X18533D1*
X18514Y4755D1*
X18495Y4736D1*
X18485Y4717D1*
X18475Y4688D1*
Y4641D1*
X18485Y4612D1*
X18495Y4593D1*
X18514Y4574D1*
X18533Y4564D1*
X18571D1*
X18590Y4574D1*
X18609Y4593D1*
X18619Y4612D1*
X18690Y4717D2*
Y4727D1*
X18700Y4746D1*
X18709Y4755D1*
X18729Y4765D1*
X18767D1*
X18786Y4755D1*
X18795Y4746D1*
X18805Y4727D1*
Y4707D1*
X18795Y4688D1*
X18776Y4660D1*
X18681Y4564D1*
X18815D1*
X18556Y7467D2*
X18547Y7486D1*
X18528Y7505D1*
X18509Y7515D1*
X18470D1*
X18451Y7505D1*
X18432Y7486D1*
X18422Y7467D1*
X18413Y7438D1*
Y7390D1*
X18422Y7362D1*
X18432Y7342D1*
X18451Y7323D1*
X18470Y7314D1*
X18509D1*
X18528Y7323D1*
X18547Y7342D1*
X18556Y7362D1*
X18618Y7476D2*
X18637Y7486D1*
X18666Y7514D1*
Y7314D1*
X14851Y7452D2*
Y7251D1*
X14918D1*
X14947Y7261D1*
X14966Y7280D1*
X14975Y7299D1*
X14985Y7328D1*
Y7376D1*
X14975Y7404D1*
X14966Y7423D1*
X14947Y7443D1*
X14918Y7452D1*
X14851D1*
X15047Y7414D2*
X15066Y7423D1*
X15094Y7452D1*
Y7251D1*
X12852Y5412D2*
X12872Y5422D1*
X12900Y5451D1*
Y5250D1*
X12972Y5403D2*
Y5412D1*
X12981Y5432D1*
X12991Y5441D1*
X13010Y5451D1*
X13048D1*
X13067Y5441D1*
X13077Y5432D1*
X13087Y5412D1*
Y5393D1*
X13077Y5374D1*
X13058Y5346D1*
X12962Y5250D1*
X13096D1*
X13158Y5451D2*
X13234Y5250D1*
X13311Y5451D1*
X12910Y8076D2*
X12891Y8066D1*
X12872Y8047D1*
X12862Y8028D1*
X12852Y7999D1*
Y7951D1*
X12862Y7923D1*
X12872Y7903D1*
X12891Y7884D1*
X12910Y7875D1*
X12948D1*
X12967Y7884D1*
X12986Y7903D1*
X12996Y7923D1*
X13005Y7951D1*
Y7999D1*
X12996Y8028D1*
X12986Y8047D1*
X12967Y8066D1*
X12948Y8076D1*
X12910D1*
X13067Y8009D2*
Y7913D1*
X13077Y7884D1*
X13096Y7875D1*
X13125D1*
X13144Y7884D1*
X13172Y7913D1*
Y8009D2*
Y7875D1*
X13263Y8076D2*
Y7913D1*
X13272Y7884D1*
X13292Y7875D1*
X13311D1*
X13234Y8009D2*
X13301D1*
X13735Y4891D2*
D41*
X13901D1*
X13864Y6208D2*
Y5949D1*
X13735Y6078D2*
X13993D1*
X13798Y8953D2*
X13963D1*
X13864Y7208D2*
Y6949D1*
X13735Y7078D2*
X13993D1*
M02*
