G04 DipTrace 2.4.0.2*
%INTouchSwitch.toppaste.ger*%
%MOIN*%
%ADD29R,0.0354X0.0157*%
%ADD31R,0.0512X0.0512*%
%ADD33R,0.063X0.0472*%
%ADD35R,0.0177X0.0335*%
%ADD37R,0.0551X0.063*%
%ADD39R,0.0827X0.0827*%
%FSLAX44Y44*%
G04*
G70*
G90*
G75*
G01*
%LNTopPaste*%
%LPD*%
D39*
X4649Y18644D3*
Y17266D3*
X13086Y18644D3*
Y17266D3*
X4649Y12332D3*
Y10954D3*
X13086Y12332D3*
Y10954D3*
X4649Y6020D3*
Y4642D3*
X13086Y6020D3*
Y4642D3*
D37*
X9586Y19956D3*
X8484D3*
X8523Y17394D3*
X9626D3*
X18023Y19956D3*
X16920D3*
X16960Y17394D3*
X18062D3*
X9586Y13644D3*
X8484D3*
X8523Y11082D3*
X9626D3*
X18023Y13644D3*
X16920D3*
X16960Y11082D3*
X18062D3*
X9586Y7332D3*
X8484D3*
X8523Y4770D3*
X9626D3*
X18023Y7332D3*
X16920D3*
X16960Y4770D3*
X18062D3*
D35*
X6649Y17894D3*
X5901D3*
X6275Y16988D3*
D33*
X6024Y19956D3*
Y21294D3*
D35*
X15085Y17894D3*
X14337D3*
X14711Y16988D3*
D33*
X14460Y19956D3*
Y21295D3*
D35*
X6649Y11582D3*
X5901D3*
X6275Y10676D3*
D33*
X6024Y13644D3*
Y14983D3*
D35*
X15085Y11582D3*
X14337D3*
X14711Y10677D3*
D33*
X14460Y13644D3*
Y14983D3*
D35*
X6649Y5270D3*
X5901D3*
X6275Y4365D3*
D33*
X6024Y7332D3*
Y8671D3*
D35*
X15085Y5270D3*
X14337D3*
X14711Y4365D3*
D33*
X14460Y7332D3*
Y8671D3*
D39*
X4649Y19893D3*
Y21271D3*
X13086Y19894D3*
Y21271D3*
X4649Y13581D3*
Y14959D3*
X13086Y13582D3*
Y14960D3*
X4649Y7270D3*
Y8648D3*
X13086Y7270D3*
Y8648D3*
D31*
X10898Y18394D3*
Y19268D3*
Y20143D3*
X19335Y18394D3*
Y19269D3*
Y20144D3*
X10898Y12082D3*
Y12957D3*
Y13832D3*
X19335Y12082D3*
Y12957D3*
Y13832D3*
X10898Y5770D3*
Y6645D3*
Y7520D3*
X19335Y5770D3*
Y6645D3*
Y7520D3*
D35*
X7649Y21081D3*
X6901D3*
X7275Y20175D3*
X16085Y21081D3*
X15337D3*
X15711Y20175D3*
X7649Y14769D3*
X6901D3*
X7275Y13863D3*
X16085Y14769D3*
X15337D3*
X15711Y13864D3*
X7649Y8457D3*
X6901D3*
X7275Y7552D3*
X16085Y8457D3*
X15337D3*
X15711Y7552D3*
D37*
X5961Y18831D3*
X7064D3*
X8484Y21206D3*
X9586D3*
X14398Y18831D3*
X15500D3*
X16920Y21206D3*
X18023D3*
X5961Y12519D3*
X7064D3*
X8484Y14894D3*
X9586D3*
X14398Y12520D3*
X15500D3*
X16920Y14894D3*
X18023D3*
X5961Y6208D3*
X7064D3*
X8484Y8582D3*
X9586D3*
X14398Y6208D3*
X15500D3*
X16920Y8582D3*
X18023D3*
D29*
X8523Y19081D3*
Y18707D3*
Y18333D3*
X9586D3*
Y18707D3*
Y19081D3*
X16960D3*
Y18707D3*
Y18333D3*
X18023D3*
Y18707D3*
Y19081D3*
X8523Y12769D3*
Y12395D3*
Y12021D3*
X9586D3*
Y12395D3*
Y12769D3*
X16960Y12770D3*
Y12395D3*
Y12021D3*
X18023D3*
Y12395D3*
Y12770D3*
X8523Y6458D3*
Y6084D3*
Y5710D3*
X9586D3*
Y6084D3*
Y6458D3*
X16960D3*
Y6084D3*
Y5710D3*
X18023D3*
Y6084D3*
Y6458D3*
M02*
