G04 DipTrace 2.4.0.2*
%INTouchSwitch.boardoutline.ger*%
%MOIN*%
%ADD11C,0.0055*%
%FSLAX44Y44*%
G04*
G70*
G90*
G75*
G01*
%LNBoardOutline*%
%LPD*%
X12409Y20049D2*
D11*
G02X11622Y20049I-394J0D01*
G01*
Y22012D1*
X8173D1*
X7386D1*
X3937D1*
Y19656D1*
Y18868D1*
Y16512D1*
X6992D1*
G02X6992Y15724I0J-394D01*
G01*
X3937D1*
Y13368D1*
Y12581D1*
Y10224D1*
X6992D1*
G02X6992Y9437I0J-394D01*
G01*
X3937D1*
Y7081D1*
Y6293D1*
Y3937D1*
X7386D1*
X8173D1*
X11622D1*
Y5900D1*
G02X12409Y5900I394J0D01*
G01*
Y3937D1*
X15858D1*
X16646D1*
X20094D1*
Y6293D1*
Y7081D1*
Y9437D1*
X17039D1*
G02X17039Y10224I0J394D01*
G01*
X20094D1*
Y12581D1*
Y13368D1*
Y15724D1*
X17039D1*
G02X17039Y16512I0J394D01*
G01*
X20094D1*
Y18868D1*
Y19656D1*
Y22012D1*
X16646D1*
X15858D1*
X12409D1*
Y20049D1*
Y7474D2*
X12357Y7278D1*
X12213Y7133D1*
X12016Y7081D1*
X11819Y7133D1*
X11675Y7278D1*
X11622Y7474D1*
Y9437D1*
X8567D1*
X8370Y9490D1*
X8226Y9634D1*
X8173Y9831D1*
X8226Y10028D1*
X8370Y10172D1*
X8567Y10224D1*
X11622D1*
Y12187D1*
X11675Y12384D1*
X11819Y12528D1*
X12016Y12581D1*
X12213Y12528D1*
X12357Y12384D1*
X12409Y12187D1*
Y10224D1*
X15465D1*
X15661Y10172D1*
X15806Y10028D1*
X15858Y9831D1*
X15806Y9634D1*
X15661Y9490D1*
X15465Y9437D1*
X12409D1*
Y7474D1*
X15465Y16512D2*
X15661Y16459D1*
X15806Y16315D1*
X15858Y16118D1*
X15806Y15921D1*
X15661Y15777D1*
X15465Y15724D1*
X12409D1*
Y13762D1*
X12357Y13565D1*
X12213Y13421D1*
X12016Y13368D1*
X11819Y13421D1*
X11675Y13565D1*
X11622Y13762D1*
Y15724D1*
X8567D1*
X8370Y15777D1*
X8226Y15921D1*
X8173Y16118D1*
X8226Y16315D1*
X8370Y16459D1*
X8567Y16512D1*
X11622D1*
Y18474D1*
X11675Y18671D1*
X11819Y18815D1*
X12016Y18868D1*
X12213Y18815D1*
X12357Y18671D1*
X12409Y18474D1*
Y16512D1*
X15465D1*
M02*
